<svg width="40" height="40" viewBox="0 0 40 40" fill="none" xmlns="http://www.w3.org/2000/svg">
<path d="M11.7236 5V12.2413M28.2762 5V12.2413M16.655 20.7586V20.6284C16.655 19.3364 16.5773 17.8962 17.4797 16.9715C17.9943 16.4442 18.827 16 20.1722 16C21.5175 16 22.3502 16.4442 22.8648 16.9715C23.7672 17.8962 23.6895 19.3364 23.6895 20.6284V20.7586M5 13.276C5 10.9907 6.8526 9.13815 9.1379 9.13815H30.8619C33.1472 9.13815 34.9997 10.9907 34.9997 13.276V30.8621C34.9997 33.1475 33.1472 35 30.8619 35H9.1379C6.8526 35 5 33.1475 5 30.8621V13.276ZM15 21.7932C15 21.3361 15.3705 20.9656 15.8276 20.9656H24.5172C24.9743 20.9656 25.3448 21.3361 25.3448 21.7932V26.3449C25.3448 27.259 24.6038 28.0001 23.6897 28.0001H16.6552C15.741 28.0001 15 27.259 15 26.3449V21.7932Z" stroke="#2B75B7" stroke-width="1.6" stroke-linecap="round" stroke-linejoin="round"/>
</svg>
