<svg width="32" height="32" viewBox="0 0 32 32" fill="none" xmlns="http://www.w3.org/2000/svg">
<path d="M5.70093 24.4116V26.6116C5.70093 27.1834 6.38018 27.6469 7.21814 27.6469H9.86401C10.702 27.6469 11.3812 27.1834 11.3812 26.6116V24.4116M20.5296 24.4116V26.6116C20.5296 27.1834 21.2089 27.6469 22.0468 27.6469H24.6927C25.5307 27.6469 26.2099 27.1834 26.2099 26.6116V24.4116M25.4828 23.965H6.51722C5.67929 23.965 5 23.2858 5 22.4478V17.1375C5 15.4616 6.35856 14.1031 8.03444 14.1031H23.9656C25.6415 14.1031 27 15.4616 27 17.1375V22.4478C27 23.2858 26.3207 23.965 25.4828 23.965ZM10.6888 19.0342C10.6888 19.4531 10.3491 19.7928 9.93016 19.7928C9.51119 19.7928 9.17155 19.4531 9.17155 19.0342C9.17155 18.6153 9.51119 18.2756 9.93016 18.2756C10.3491 18.2756 10.6888 18.6153 10.6888 19.0342ZM22.8274 19.0342C22.8274 19.4531 22.4877 19.7928 22.0688 19.7928C21.6499 19.7928 21.3102 19.4531 21.3102 19.0342C21.3102 18.6153 21.6499 18.2756 22.0688 18.2756C22.4877 18.2756 22.8274 18.6153 22.8274 19.0342ZM25.482 14.1033H6.51644L7.61107 7.53558C7.85493 6.07242 9.12085 5 10.6042 5H21.3943C22.8777 5 24.1435 6.07242 24.3875 7.53558L25.482 14.1033Z" stroke="#2B75B7" stroke-width="1.6" stroke-linecap="round" stroke-linejoin="round"/>
</svg>
