<svg width="728" height="907" viewBox="0 0 728 907" fill="none" xmlns="http://www.w3.org/2000/svg">
<g clip-path="url(#clip0_43_873)">
<path fill-rule="evenodd" clip-rule="evenodd" d="M664.494 552.301C667.901 552.239 674.035 552.486 678.124 552.796C682.213 553.106 687.666 553.85 690.206 554.408C692.746 554.903 696.092 555.833 697.641 556.329C699.19 556.825 701.42 557.754 702.597 558.312C703.775 558.87 706.377 560.357 708.36 561.596C710.28 562.898 713.316 565.687 714.989 567.794C716.724 569.963 718.892 573.371 719.884 575.416C720.813 577.461 721.99 579.94 722.424 580.994C722.858 581.986 723.601 584.402 724.035 586.262C724.53 588.121 725.336 592.149 725.831 595.248C726.327 598.284 727.009 600.887 727.38 600.949C727.814 601.073 728 607.952 728 621.276C728 636.893 727.814 641.603 727.195 642.161C726.761 642.595 726.203 644.764 725.893 646.995C725.646 649.226 724.902 653.006 724.221 655.361C723.601 657.716 722.734 660.691 722.3 661.868C721.804 663.046 720.627 665.711 719.636 667.694C718.583 669.739 715.794 673.519 713.378 676.06C710.652 678.973 707.616 681.514 705.324 682.753C703.341 683.807 699.438 685.418 696.711 686.348C693.985 687.215 688.843 688.393 685.249 688.95C680.974 689.632 674.655 690.004 666.972 690.004C660.404 690.066 652.35 689.694 648.694 689.198C645.101 688.764 640.082 687.835 637.542 687.153C635.002 686.471 630.789 684.922 628.249 683.683C624.779 682.009 622.424 680.274 618.955 676.804C615.547 673.333 613.689 670.854 612.078 667.446C610.839 664.905 609.537 661.992 609.166 660.939C608.794 659.885 607.926 656.849 607.245 654.122C606.625 651.395 605.696 646.623 605.262 643.586C604.705 639.93 604.395 632.183 604.395 621.276C604.395 610.369 604.705 602.622 605.262 598.966C605.696 595.867 606.625 591.157 607.245 588.431C607.926 585.704 608.794 582.605 609.166 581.614C609.537 580.56 610.839 577.647 612.078 575.107C613.689 571.698 615.547 569.219 618.955 565.811C621.681 563.084 625.151 560.357 627.319 559.18C629.364 558.126 632.957 556.701 635.374 556.019C637.728 555.337 641.26 554.47 643.118 554.036C644.977 553.664 649.19 553.106 652.412 552.858C655.634 552.548 661.086 552.301 664.494 552.301ZM655.82 586.014C654.766 586.757 653.341 588.245 652.66 589.422C651.916 590.6 650.863 592.893 650.367 594.628C649.81 596.301 649.128 600.949 648.756 604.853C648.385 608.758 648.075 616.442 648.075 621.896C648.075 627.35 648.509 635.282 649.004 639.558C649.5 643.834 650.243 648.296 650.677 649.536C651.111 650.713 652.226 652.758 653.155 653.998C654.209 655.361 656.067 656.787 657.802 657.53C660.095 658.522 662.077 658.77 666.043 658.77C670.132 658.708 671.929 658.398 674.035 657.344C675.522 656.601 677.567 654.989 678.496 653.812C679.549 652.51 680.788 649.66 681.594 646.685C682.895 642.099 682.957 640.24 683.019 621.896C683.081 604.729 682.895 601.383 681.966 597.107C681.346 594.38 680.107 591.095 679.301 589.794C678.496 588.555 676.885 586.819 675.77 586.014C674.717 585.208 672.3 584.217 670.503 583.845C668.769 583.473 666.352 583.163 665.237 583.225C664.184 583.225 662.015 583.597 660.466 584.031C658.917 584.464 656.873 585.332 655.82 586.014ZM30.4831 554.098C31.4124 554.098 44.9811 554.346 60.5324 554.718C76.1457 555.089 91.3872 555.709 100.061 556.825L100.247 559.613C100.371 561.163 99.9993 567.546 99.4417 573.867C98.8841 580.188 98.3265 585.518 98.1406 585.766C98.0167 586.076 86.4306 586.262 72.4902 586.262C49.3181 586.262 46.9637 586.386 45.4768 587.315C44.5474 587.935 43.4322 589.174 42.9985 590.104C42.4409 591.281 42.1311 594.132 42.1311 598.656C42.1311 605.287 42.193 605.473 43.4941 605.659C44.2996 605.783 55.2041 605.907 67.8434 606.031C80.4208 606.093 90.9535 606.403 91.2014 606.589C91.5111 606.837 91.6351 612.848 91.3872 633.051L67.3477 633.237C51.9203 633.299 43.0604 633.609 42.5648 634.043C42.0071 634.476 41.8832 636.893 42.0072 642.843C42.1724 648.296 42.5441 651.581 43.1224 652.696C43.618 653.688 44.9811 654.865 46.1583 655.361C47.9551 656.105 52.478 656.291 73.1098 656.291C86.7404 656.291 98.0167 656.477 98.1406 656.725C98.2645 657.034 98.8841 662.364 99.4417 668.685C99.9993 675.007 100.371 681.39 100.061 685.728L96.3438 686.162C94.2992 686.348 87.298 686.843 80.8545 687.215C74.3489 687.587 60.0368 688.021 48.9464 688.269C36.3071 688.455 27.7569 688.393 26.0221 687.959C24.4732 687.649 22.1188 687.091 20.7557 686.719C19.3927 686.41 16.4807 685.046 14.3122 683.745C12.1437 682.443 9.10775 679.964 7.55881 678.291C6.00987 676.556 4.08919 673.767 3.3457 672.094C2.54026 670.359 1.85872 668.623 1.85872 668.19C1.85872 667.818 1.42502 667.322 0.929362 667.136C0.123915 666.888 0 661.249 0 621.4C0.0619574 584.898 0.185872 575.912 0.867404 575.416C1.30111 575.045 2.16851 573.371 2.78809 571.698C3.46962 569.963 5.14247 567.174 6.50553 565.501C7.93055 563.766 10.4089 561.349 12.1437 560.109C13.8165 558.808 16.7285 557.196 18.5872 556.515C20.446 555.771 23.5438 554.965 25.4026 554.718C27.2613 554.408 29.5537 554.16 30.4831 554.098ZM57.6204 785.256C60.1607 785.256 67.1619 785.628 73.1098 786.124C79.0577 786.619 86.3687 787.549 89.3426 788.107C92.3166 788.726 95.1666 789.656 95.7243 790.152C96.5297 790.957 96.5917 791.887 96.096 796.969C95.7243 800.191 95.1666 805.645 94.7329 809.053C94.3612 812.462 93.7416 815.499 93.4318 815.747C93.0601 815.994 84.51 816.242 74.4109 816.18C59.1694 816.118 55.5758 816.304 53.2834 817.11C51.7345 817.668 49.8138 818.721 49.0703 819.465C48.2649 820.209 47.1496 821.82 46.654 822.997C46.1583 824.175 45.3529 828.079 44.8572 831.674C44.4235 835.268 44.0517 841.527 44.0517 845.617C44.0517 849.708 44.4235 855.967 44.8572 859.561C45.2909 863.156 46.2203 867.184 46.8398 868.547C47.5214 869.849 49.1323 871.77 52.9736 874.373H70.6315C80.3588 874.373 89.9003 874.125 91.8829 873.939C94.0514 873.691 95.7243 873.753 96.034 874.125C96.2819 874.435 96.9634 878.215 97.521 882.491C98.0167 886.767 98.5123 892.469 98.8221 900.153L95.7243 901.145C93.9894 901.765 90.5198 902.632 87.9796 903.19C85.4393 903.686 81.598 904.306 79.4295 904.491C77.3229 904.677 75.5881 905.049 75.5881 905.421C75.5881 905.793 70.1978 906.041 60.7183 906.041C51.2388 906.041 45.8485 905.793 45.8485 905.421C45.8485 905.049 44.3615 904.615 42.5648 904.43C40.83 904.244 37.6701 903.562 35.6255 902.942C33.5809 902.322 29.9254 900.897 27.5711 899.782C24.5352 898.294 21.9329 896.373 18.897 893.336C15.8611 890.3 13.9404 887.697 12.4534 884.66C11.3382 882.305 9.91319 878.649 9.29362 876.604C8.67404 874.559 7.68272 870.345 7.06315 867.308C6.13379 862.722 5.94792 858.756 5.94792 845.308C5.94792 832.045 6.13379 827.893 7.00119 823.617C7.62077 820.704 8.736 816.366 9.41753 814.011C10.161 811.656 11.586 808.124 12.5774 806.265C13.5687 804.406 15.3035 801.617 16.4807 800.067C17.6579 798.518 20.0123 796.163 21.809 794.862C23.6058 793.498 26.8895 791.577 29.12 790.586C31.3505 789.594 34.6962 788.355 36.5549 787.859C38.4136 787.301 42.8746 786.557 46.4681 786.124C50.0616 785.69 55.0802 785.318 57.6204 785.256ZM159.231 785.318C165.241 785.256 172.304 785.566 176.269 786.124C179.986 786.619 184.633 787.487 186.492 787.983C188.351 788.541 191.696 789.842 193.927 790.957C196.343 792.135 199.441 794.428 201.671 796.659C203.716 798.766 206.318 802.237 207.495 804.406C208.611 806.637 210.036 810.107 210.655 812.152C211.275 814.197 212.266 818.102 212.948 820.828C213.877 825.104 214.063 828.513 214.063 845.617C214.063 862.66 213.877 866.13 212.948 870.406C212.328 873.133 211.213 877.038 210.531 879.083C209.85 881.128 208.673 884.164 207.867 885.9C207.062 887.573 205.203 890.424 203.716 892.159C202.229 893.894 199.813 896.249 198.326 897.427C196.777 898.604 194.422 900.029 193.059 900.649C191.634 901.269 188.846 902.322 186.802 902.942C184.757 903.562 181.783 904.244 180.11 904.43C178.499 904.615 177.198 905.049 177.198 905.421C177.198 905.793 171.188 906.041 160.47 906.041C149.751 906.041 143.741 905.793 143.741 905.421C143.741 905.049 142.44 904.677 140.767 904.491C139.156 904.306 135.873 903.5 133.518 902.818C131.102 902.075 127.942 900.773 126.393 899.967C124.844 899.1 122.552 897.551 121.251 896.497C119.95 895.443 117.719 893.027 116.294 891.167C114.931 889.308 113.01 885.962 112.081 883.731C111.152 881.5 109.913 878.153 109.417 876.294C108.859 874.435 107.992 870.097 107.372 866.688C106.567 862.04 106.319 856.834 106.319 845.927C106.319 834.896 106.567 829.752 107.434 824.547C108.054 820.766 109.045 816.056 109.665 814.011C110.284 811.966 111.399 808.868 112.143 807.194C112.886 805.459 114.373 802.67 115.489 800.997C116.604 799.262 118.772 796.783 120.321 795.42C121.808 794.056 125.154 791.949 127.694 790.71C130.235 789.47 133.642 788.107 135.377 787.673C137.05 787.239 140.829 786.557 143.741 786.124C146.653 785.69 153.593 785.318 159.231 785.318ZM149.07 816.924C148.264 818.04 147.149 820.766 146.467 822.997C145.476 826.53 145.29 829.257 145.29 845.308C145.29 860.987 145.476 864.147 146.405 867.618C147.025 869.849 148.202 872.638 148.946 873.815C149.751 874.992 151.61 876.604 153.097 877.347C155.141 878.401 156.938 878.773 160.284 878.773C163.506 878.773 165.488 878.401 167.099 877.595C168.4 876.976 170.135 875.674 171.003 874.683C171.87 873.691 173.047 871.46 173.605 869.787C174.162 868.052 174.968 863.589 175.34 859.871C175.649 856.091 175.959 849.274 175.959 844.688C175.897 840.102 175.525 833.099 175.092 829.195C174.596 825.29 173.791 821.076 173.295 819.899C172.737 818.721 171.436 816.862 170.259 815.809C169.144 814.755 167.223 813.578 166.046 813.144C164.869 812.772 162.081 812.462 159.85 812.524C157.434 812.524 154.708 813.02 153.159 813.701C151.548 814.321 149.875 815.685 149.07 816.924Z" fill="#3C3C3C"/>
<path fill-rule="evenodd" clip-rule="evenodd" d="M507.122 0C520.938 0 528.497 0.247891 528.497 0.619727C528.497 0.929591 529.612 1.23945 530.975 1.23945C532.338 1.23945 534.631 1.61129 536.118 2.10707C537.543 2.60285 539.897 3.16061 541.322 3.34653C542.809 3.53244 544.11 3.90428 544.234 4.21414C544.358 4.46204 545.411 4.83387 546.527 5.08176C547.704 5.32965 549.5 5.94938 550.492 6.50713C551.483 7.00292 552.784 7.43672 553.28 7.43672C553.776 7.43672 554.767 7.80856 555.448 8.36632C556.13 8.8621 557.245 9.23393 557.927 9.23393C558.608 9.23393 559.6 9.66774 560.095 10.2255C560.591 10.7833 561.396 11.2171 561.768 11.1551C562.202 11.1551 564.308 12.0847 566.415 13.2622C568.583 14.3777 571.186 15.865 572.301 16.4847C573.354 17.1664 575.585 18.4679 577.257 19.4594C578.868 20.451 582.338 22.8679 584.878 24.8511C587.418 26.7722 590.207 29.0032 591.074 29.7469C591.941 30.4906 593.986 32.2258 595.659 33.6512C597.332 35.0766 600.677 38.4851 603.032 41.2118C605.386 43.9386 607.926 46.8514 608.67 47.719C609.351 48.5866 611.458 51.3134 613.193 53.7923C614.99 56.2092 616.476 58.3783 616.476 58.5642C616.476 58.7501 617.158 59.9276 618.087 61.229C618.955 62.4685 620.442 65.2573 621.495 67.4263C622.486 69.5334 623.602 71.3926 623.911 71.5785C624.221 71.7644 624.531 72.3841 624.531 73.0039C624.469 73.5616 624.903 74.4912 625.46 74.987C626.018 75.4828 626.452 76.4124 626.39 77.0321C626.39 77.5898 626.761 78.8293 627.257 79.8208C627.691 80.7504 628.496 82.4857 628.992 83.6632C629.488 84.8406 630.355 87.2576 630.851 88.9308C631.408 90.6661 632.028 93.021 632.276 94.1985C632.523 95.376 632.957 96.6154 633.205 96.9873C633.453 97.3591 633.887 99.0324 634.072 100.706C634.32 102.441 634.878 105.23 635.374 106.903C635.807 108.638 636.427 112.79 636.675 116.199C636.984 119.607 637.17 125.867 637.17 130.143C637.17 134.419 636.922 140.926 636.551 144.706C636.179 148.487 635.683 151.771 635.497 152.143C635.312 152.515 634.692 154.746 634.196 157.101C633.701 159.518 632.957 162.678 632.523 164.228C632.152 165.777 631.408 167.946 630.975 169.062C630.479 170.115 630.107 171.478 630.107 171.974C630.107 172.47 629.673 173.771 629.178 174.763C628.682 175.755 627.815 177.49 627.319 178.481C626.823 179.473 626.39 180.588 626.39 180.96C626.39 181.332 626.761 181.58 627.133 181.58C627.567 181.642 629.054 182.138 630.417 182.819C631.78 183.501 633.329 184.059 633.825 184.059C634.32 184.059 635.312 184.493 635.993 184.989C636.675 185.546 637.79 185.918 638.471 185.918C639.153 185.98 640.268 186.352 640.95 186.848C641.631 187.405 642.746 187.777 643.428 187.777C644.109 187.839 645.225 188.211 645.906 188.707C646.588 189.265 647.703 189.636 648.385 189.636C649.066 189.698 650.181 190.07 650.863 190.566C651.544 191.124 652.66 191.496 653.341 191.496C654.023 191.496 655.138 191.868 655.819 192.425C656.501 192.921 657.616 193.293 658.298 193.355C658.979 193.355 660.095 193.727 660.776 194.284C661.458 194.78 662.387 195.214 662.759 195.214C663.192 195.214 664.493 195.648 665.547 196.144C666.662 196.639 668.831 197.445 670.379 198.003C671.928 198.561 674.097 199.242 675.15 199.614C676.265 199.924 677.319 200.42 677.505 200.792C677.69 201.163 678.496 201.411 679.363 201.411C680.231 201.411 681.656 201.783 682.585 202.279C683.576 202.713 685.311 203.518 686.488 204.014C687.666 204.51 689.648 205.254 690.825 205.687C692.003 206.121 693.985 206.741 695.162 206.989C696.34 207.299 698.322 208.042 699.499 208.6C700.677 209.22 702.04 210.025 702.473 210.335C702.969 210.707 705.262 212.938 707.678 215.355C710.032 217.772 712.263 220.251 712.572 220.933C712.944 221.614 713.997 223.721 714.989 225.581C715.98 227.44 716.848 229.423 716.848 229.919C716.848 230.415 717.157 231.22 717.591 231.654C718.149 232.212 718.458 235.001 718.582 240.02C718.768 246.403 718.582 248.201 717.529 251.299C716.848 253.344 715.361 256.753 714.245 258.86C713.13 260.967 710.962 264.004 709.413 265.677C707.864 267.35 704.828 270.139 702.597 271.874C700.367 273.671 698.136 275.097 697.641 275.097C697.145 275.097 696.278 275.531 695.782 276.088C695.286 276.646 694.295 277.08 693.613 277.08C692.932 277.018 691.569 277.452 690.516 278.01C689.091 278.815 686.736 279.063 679.983 279.063C672.796 279.125 671.061 278.939 669.76 278.072C668.892 277.452 667.653 277.018 666.972 277.018C666.29 277.08 665.299 276.646 664.803 276.088C664.308 275.531 663.502 275.097 663.068 275.159C662.697 275.159 661.024 274.167 659.351 272.928C657.74 271.75 645.411 259.852 631.966 246.589C618.521 233.389 606.935 222.11 606.253 221.614C605.572 221.057 604.271 220.623 603.28 220.623C602.35 220.623 600.553 221.181 599.252 221.8C598.013 222.482 595.721 224.217 594.172 225.705C592.623 227.192 588.596 230.477 585.188 233.079C581.78 235.62 578.559 237.975 578.063 238.223C577.567 238.471 576.576 238.967 575.832 239.401C575.151 239.834 574.16 240.454 573.664 240.826C573.168 241.26 570.07 242.995 566.725 244.73C563.441 246.465 560.343 247.891 559.909 247.891C559.538 247.829 558.732 248.263 558.236 248.82C557.741 249.378 556.811 249.812 556.192 249.75C555.634 249.75 554.395 250.122 553.404 250.618C552.474 251.113 550.74 251.795 549.562 252.229C548.385 252.663 546.403 253.159 545.225 253.406C544.048 253.654 542.437 254.212 541.632 254.584C540.888 255.018 539.587 255.328 538.72 255.328C537.852 255.328 535.994 255.699 534.507 256.195C533.082 256.691 529.426 257.435 526.328 257.806C523.231 258.178 517.654 258.736 513.937 259.046C509.972 259.356 504.024 259.356 499.687 258.984C495.598 258.674 489.588 258.054 486.366 257.559C483.144 257.063 479.241 256.319 477.692 255.947C476.143 255.513 473.665 254.832 472.116 254.336C470.567 253.84 468.77 253.468 468.088 253.468C467.407 253.406 466.292 253.035 465.61 252.539C464.929 251.981 463.813 251.609 463.132 251.609C462.45 251.609 461.335 251.237 460.654 250.68C459.972 250.184 458.919 249.75 458.299 249.75C457.742 249.75 456.316 249.254 455.201 248.696C454.148 248.139 452.785 247.457 452.289 247.147C451.794 246.899 450.678 246.342 449.811 246.032C448.944 245.66 447.828 245.164 447.333 244.792C446.837 244.482 444.978 243.491 443.305 242.623C441.571 241.694 439.464 240.516 438.535 239.958C437.605 239.401 435.685 238.099 434.198 237.046C432.711 236.054 431.41 235.062 431.224 234.877C431.038 234.691 430.047 233.947 428.931 233.327C427.878 232.646 425.09 230.415 422.798 228.369C420.443 226.324 416.85 222.978 414.805 220.871C412.76 218.826 409.415 215.231 407.37 212.938C405.326 210.645 403.529 208.414 403.405 208.042C403.219 207.609 402.847 206.989 402.475 206.617C402.104 206.245 401.36 205.254 400.865 204.51C400.369 203.766 399.44 202.465 398.82 201.659C398.262 200.854 397.767 200.048 397.767 199.862C397.767 199.676 396.837 198.189 395.722 196.577C394.669 194.904 392.376 190.752 390.704 187.405C389.031 184.059 387.234 180.279 386.738 179.101C386.243 177.924 385.437 176.188 385.003 175.259C384.508 174.267 384.136 173.028 384.136 172.47C384.136 171.85 383.764 170.673 383.331 169.805C382.835 168.938 382.277 167.016 381.968 165.467C381.72 163.918 381.286 162.43 381.038 162.059C380.79 161.687 380.233 159.766 379.861 157.721C379.489 155.675 378.932 152.205 378.56 149.974C378.188 147.743 377.631 144.087 377.321 141.794C376.949 139.439 376.701 133.861 376.701 129.337C376.701 124.875 377.011 118.802 377.383 115.889C377.692 112.976 378.25 109.072 378.56 107.213C378.87 105.354 379.551 102.007 380.047 99.7761C380.543 97.545 381.286 94.5084 381.72 92.9591C382.091 91.4097 382.835 89.4266 383.269 88.497C383.764 87.5055 384.136 86.328 384.136 85.8322C384.136 85.3364 384.57 83.8491 385.127 82.6096C385.685 81.3082 386.552 79.449 386.986 78.3955C387.42 77.3419 387.915 76.1025 388.101 75.6067C388.287 75.1109 388.721 74.2433 389.031 73.7475C389.34 73.2517 390.208 71.5785 390.951 70.0292C391.695 68.4798 392.996 66.1249 393.801 64.7615C394.607 63.3981 395.474 61.8488 395.722 61.353C395.97 60.8572 396.961 59.1839 398.015 57.6346C399.006 56.0853 401.67 52.4909 403.9 49.5782C406.131 46.6654 409.229 42.9471 410.778 41.2738C412.327 39.6625 415.239 36.6878 417.283 34.7047C419.328 32.7216 421.868 30.4286 422.859 29.6849C423.851 28.8793 424.842 28.0736 425.028 27.8877C425.214 27.7018 426.577 26.5243 428.126 25.2229C429.675 23.9834 431.286 22.9299 431.657 22.9299C432.091 22.9299 432.587 22.4961 432.773 22.0003C432.959 21.5045 433.392 21.0707 433.702 21.0707C434.012 21.0707 435.809 20.0792 437.543 18.9017C439.34 17.6622 442.066 16.1129 443.553 15.3073C445.04 14.5636 446.341 13.7579 446.465 13.51C446.589 13.2002 447.209 13.0143 447.828 13.0143C448.51 13.0143 449.377 12.5805 449.873 12.0847C450.369 11.5269 451.236 11.0931 451.794 11.1551C452.351 11.1551 453.219 10.7213 453.652 10.2255C454.086 9.66774 455.015 9.23393 455.697 9.29591C456.378 9.29591 457.494 8.92407 458.175 8.36632C458.857 7.87053 460.096 7.43672 460.963 7.43672C461.769 7.43672 462.884 7.06489 463.442 6.56911C463.937 6.1353 465.548 5.57754 466.973 5.32965C468.46 5.14373 469.761 4.70993 469.947 4.33809C470.133 4.02823 471.558 3.53244 473.169 3.28455C474.842 3.09864 477.072 2.54088 478.126 2.0451C479.241 1.61129 481.409 1.23945 482.958 1.23945C484.507 1.23945 485.746 0.991563 485.746 0.619727C485.746 0.247891 493.305 0 507.122 0V0ZM486.49 33.1554C485.065 33.6512 483.144 34.085 482.153 34.085C481.223 34.147 479.798 34.5188 478.931 35.0146C478.064 35.5104 476.7 35.8822 475.833 35.8822C474.966 35.9442 473.727 36.316 473.045 36.8738C472.363 37.3695 471.31 37.8034 470.691 37.8034C470.133 37.8034 468.894 38.1752 467.903 38.671C466.973 39.1048 463.875 40.6541 460.963 42.1414C458.051 43.5668 454.953 45.1781 454.024 45.7359C453.095 46.2936 451.174 47.595 449.687 48.6486C448.2 49.7021 446.713 50.8176 446.279 51.1275C445.908 51.4373 444.668 52.4289 443.491 53.2346C442.376 54.1022 438.906 57.2628 435.871 60.3614C432.773 63.4601 428.56 68.2319 426.577 70.9587C424.532 73.6855 422.55 76.4743 422.116 77.156C421.682 77.8377 420.691 79.6349 419.886 81.1842C419.018 82.7336 417.965 84.7787 417.407 85.8322C416.912 86.8857 415.982 88.8069 415.363 90.1703C414.805 91.5337 413.938 93.3929 413.442 94.3225C413.008 95.314 412.636 96.5535 412.636 97.1112C412.636 97.731 412.265 98.7845 411.707 99.4662C411.211 100.148 410.778 101.449 410.778 102.379C410.778 103.37 410.406 105.044 409.91 106.097C409.477 107.213 408.795 109.94 408.361 112.171C407.99 114.402 407.37 119.669 406.998 123.945C406.503 129.647 406.503 133.489 406.998 138.509C407.37 142.289 408.052 147.557 408.485 150.284C408.919 153.011 409.663 155.861 410.034 156.605C410.468 157.411 410.778 158.774 410.778 159.704C410.778 160.695 411.211 161.997 411.707 162.678C412.265 163.36 412.636 164.414 412.636 164.971C412.636 165.591 413.008 166.831 413.504 167.76C413.938 168.752 415.425 171.726 416.726 174.453C418.027 177.18 419.947 180.774 420.939 182.51C421.992 184.183 424.47 187.839 426.515 190.566C428.56 193.293 432.897 198.189 436.18 201.473C439.402 204.758 444.297 209.096 447.023 211.141C449.749 213.124 452.413 215.045 452.909 215.231C453.404 215.479 454.706 216.223 455.697 216.842C456.688 217.524 459.105 218.826 460.963 219.755C462.822 220.623 465.362 221.862 466.539 222.358C467.717 222.854 469.451 223.66 470.381 224.155C471.372 224.589 472.735 224.961 473.479 224.961C474.284 224.961 475.461 225.395 476.143 225.891C476.824 226.448 478.126 226.82 479.055 226.82C480.046 226.82 481.843 227.192 483.082 227.688C484.383 228.184 488.101 228.927 491.322 229.361C494.544 229.857 501.236 230.229 506.192 230.229C511.149 230.167 517.654 229.857 520.752 229.423C523.85 228.989 527.32 228.307 528.497 227.936C529.674 227.502 531.781 227.006 533.144 226.758C534.507 226.51 536.613 226.014 537.791 225.581C538.968 225.147 540.703 224.465 541.632 223.969C542.623 223.474 543.8 223.102 544.296 223.102C544.792 223.102 545.969 222.73 546.898 222.234C547.89 221.8 550.182 220.623 552.041 219.693C553.899 218.826 556.316 217.524 557.307 216.842C558.298 216.223 559.6 215.479 560.095 215.231C560.591 215.045 562.202 213.992 563.565 212.938C564.99 211.885 566.787 210.583 567.53 210.087C568.274 209.592 569.884 208.29 571.124 207.299C572.363 206.307 575.151 203.642 577.443 201.411C579.674 199.18 583.391 194.966 585.684 191.929C587.976 188.955 589.835 186.414 589.835 186.228C589.835 186.042 590.454 184.989 591.198 183.873C592.003 182.758 593.862 179.349 595.349 176.312C596.836 173.214 598.447 169.867 598.819 168.876C599.252 167.884 600.058 165.963 600.615 164.661C601.173 163.422 601.607 161.749 601.607 160.943C601.607 160.199 601.978 159.022 602.536 158.34C603.032 157.659 603.465 156.171 603.465 155.056C603.465 154.002 603.837 151.895 604.333 150.408C604.828 148.982 605.51 144.025 605.882 139.439C606.315 133.551 606.315 128.407 605.882 122.086C605.51 117.128 604.828 112.047 604.333 110.745C603.837 109.506 603.465 107.523 603.465 106.407C603.403 105.354 603.032 103.742 602.536 102.875C602.04 102.007 601.607 100.644 601.607 99.7761C601.607 98.9084 601.173 97.669 600.677 96.9873C600.12 96.3056 599.748 95.1901 599.748 94.5084C599.81 93.8267 599.376 92.8351 598.819 92.3393C598.261 91.8436 597.827 91.0379 597.889 90.6041C597.889 90.2323 597.394 88.9308 596.836 87.8153C596.216 86.7618 594.358 83.4772 592.685 80.5645C591.012 77.6518 588.348 73.6236 586.799 71.5785C585.25 69.5334 582.71 66.4347 581.099 64.7615C579.488 63.0262 577.505 60.9811 576.7 60.1135C575.894 59.2459 573.85 57.2628 572.177 55.7754C570.442 54.2261 568.212 52.3669 567.22 51.5613C566.167 50.8176 564.122 49.2683 562.574 48.1528C561.025 47.0993 558.98 45.7359 557.927 45.1781C556.935 44.6823 554.209 43.195 551.855 41.9555C549.562 40.7161 547.332 39.6625 546.898 39.6625C546.527 39.7245 545.721 39.2907 545.225 38.7329C544.73 38.1752 543.738 37.7414 543.057 37.8034C542.375 37.8034 541.26 37.4315 540.579 36.8738C539.897 36.378 538.72 35.9442 537.914 35.9442C537.171 35.9442 535.622 35.5723 534.507 35.0766C533.454 34.5808 530.975 33.8991 529.116 33.5272C527.258 33.0934 523.912 32.5357 521.682 32.2258C519.451 31.9779 514.556 31.6061 510.839 31.4202C507.122 31.2342 500.678 31.3582 496.589 31.6681C492.5 32.0399 487.977 32.6596 486.49 33.1554Z" fill="#3C3C3C"/>
<path fill-rule="evenodd" clip-rule="evenodd" d="M349.936 120.289C356.131 120.289 361.336 120.413 361.46 120.723C361.584 120.971 361.831 125.123 361.955 129.957C362.017 134.791 361.893 138.943 361.646 139.253C361.336 139.501 354.52 139.934 346.466 140.182C338.35 140.368 328.684 140.74 324.967 140.988C321.249 141.174 314.124 141.732 309.168 142.227C304.211 142.785 296.962 143.591 293.059 144.149C289.155 144.644 283.269 145.512 280.048 146.008C276.826 146.565 271.497 147.495 268.276 148.177C264.868 148.858 261.46 149.974 260.221 150.78C259.044 151.585 257.061 153.444 255.822 154.994C254.583 156.481 252.167 160.261 250.37 163.298C248.573 166.335 246.838 169.433 246.467 170.115C246.095 170.797 244.298 174.329 242.439 178.048C240.643 181.704 239.156 184.803 239.156 184.989C239.156 185.174 238.35 187.034 237.421 189.203C236.43 191.31 234.695 195.214 233.518 197.879C232.113 201.101 231.617 202.919 232.031 203.332C232.464 203.704 235.624 203.642 241.634 203.023C246.591 202.465 255.203 201.721 260.841 201.349C266.479 200.978 279.428 200.42 289.651 200.172C299.874 199.862 324.347 199.614 379.799 199.552L385.623 208.414C388.783 213.248 394.297 220.561 397.829 224.651C401.36 228.679 407.618 234.877 411.707 238.409C415.796 241.88 421.125 246.094 423.479 247.767C425.895 249.378 429.489 251.733 431.534 252.973C433.578 254.212 437.481 256.381 440.208 257.807C442.934 259.232 447.147 261.215 449.501 262.269C451.918 263.26 457.06 265.181 460.963 266.483C464.867 267.722 469.885 269.209 472.116 269.767C474.346 270.325 478.435 271.193 481.285 271.75C484.073 272.246 487.047 272.68 487.915 272.68C488.844 272.68 489.402 272.99 489.278 273.486C489.154 273.857 488.225 274.291 487.233 274.415C486.242 274.477 483.33 275.035 480.79 275.593C478.249 276.15 475.152 277.08 473.974 277.7C472.797 278.257 471.062 279.559 470.195 280.55C469.266 281.48 467.841 283.463 466.911 284.951C466.044 286.376 465.053 288.793 464.681 290.342C464.185 292.511 464.247 293.627 464.991 295.3C465.61 296.746 466.705 297.82 468.274 298.523C470.319 299.514 472.797 299.638 490.083 299.638C507.679 299.638 509.972 299.514 513.317 298.461C515.796 297.655 517.778 296.477 519.203 294.99C520.381 293.751 522.239 290.962 523.354 288.793C524.47 286.562 525.957 283.215 526.638 281.356C527.568 279.001 527.877 277.204 527.63 275.655C527.444 274.353 527.444 273.176 527.753 273.052C528.001 272.866 530.975 272.184 534.383 271.502C537.791 270.759 541.57 269.953 542.747 269.643C543.924 269.271 546.96 268.404 549.377 267.598C553.094 266.421 554.023 266.297 554.643 266.978C555.263 267.598 555.448 272.556 555.386 288.359C555.324 302.179 554.953 312.095 554.271 318.54C553.714 323.807 552.846 332.608 552.351 338.061C551.669 344.816 551.421 353.43 551.483 365.019C551.545 376.794 551.421 382.62 550.926 383.797C550.492 384.727 549.253 386.462 548.199 387.701C547.084 388.879 545.163 390.18 543.986 390.49C542.809 390.8 529.302 391.048 513.937 391.048C496.775 391.048 485.251 390.8 483.888 390.428C482.71 390.056 480.914 389.003 479.984 388.073C478.993 387.144 477.816 385.656 477.32 384.727C476.824 383.735 476.453 381.318 476.453 379.273C476.453 375.865 476.329 375.493 474.904 374.935C474.036 374.625 471.496 374.315 469.204 374.253C466.849 374.253 462.76 373.943 460.034 373.633C457.308 373.324 443.677 372.766 429.675 372.456C415.734 372.146 387.234 371.65 366.478 371.464C342.191 371.155 320.134 371.279 304.831 371.712C291.696 372.146 273.604 372.89 264.558 373.386C255.512 373.943 246.962 374.315 245.537 374.315C244.05 374.315 242.315 374.625 241.634 374.935C240.643 375.431 240.395 376.174 240.395 378.963C240.395 380.946 239.961 383.301 239.342 384.665C238.722 385.904 237.111 387.763 233.332 390.738L204.15 390.924C185.686 390.986 174.224 390.8 172.861 390.428C171.684 390.056 169.949 389.127 169.02 388.259C168.028 387.391 166.727 385.532 166.046 384.107C164.931 381.628 164.807 380.079 164.807 361.921C164.807 348.782 164.497 340.044 163.939 335.272C163.444 331.368 162.576 322.01 161.957 314.512C161.213 304.472 161.027 296.415 161.275 283.835C161.399 274.477 161.895 264.871 162.328 262.454C162.762 260.038 163.63 255.761 164.249 252.849C164.869 249.936 166.418 245.04 167.657 242.003C168.896 238.967 170.817 235.001 171.932 233.327C173.109 231.654 174.534 229.671 175.154 228.927C175.773 228.246 177.322 226.82 178.623 225.829C179.924 224.837 180.978 223.536 180.916 222.916C180.916 222.296 180.296 221.738 179.243 221.49C178.251 221.305 175.711 220.127 173.481 218.888C171.25 217.648 168.152 215.293 166.542 213.682C164.869 212.071 163.258 209.964 162.886 209.034C162.514 208.042 161.957 206.617 161.709 205.749C161.337 204.696 161.585 203.394 162.39 201.535C163.258 199.676 164.497 198.313 166.851 196.825C168.586 195.71 171.87 194.223 174.1 193.541C176.331 192.859 180.11 191.93 182.465 191.496C184.881 191.062 190.457 190.504 194.856 190.256C200.742 189.946 203.22 190.07 204.15 190.566C204.831 191 206.504 192.921 207.867 194.78C209.23 196.701 210.717 198.313 211.151 198.313C211.523 198.313 212.452 197.011 213.195 195.338C213.877 193.727 214.868 191.496 215.364 190.38C215.86 189.327 216.231 188.273 216.231 188.087C216.231 187.901 217.099 185.918 218.152 183.563C219.143 181.27 220.383 178.543 220.816 177.552C221.25 176.56 223.48 171.912 225.711 167.326C227.941 162.74 231.039 156.729 232.65 154.002C234.261 151.275 237.173 146.813 239.094 144.149C241.138 141.236 244.112 138.075 246.281 136.402C248.387 134.853 252.105 132.684 254.645 131.63C257.185 130.577 261.274 129.213 263.629 128.717C266.045 128.16 270.072 127.416 272.613 126.982C275.153 126.61 280.171 125.929 283.765 125.433C287.359 124.937 292.811 124.317 295.847 123.945C298.945 123.574 303.653 123.016 306.379 122.706C309.106 122.334 317.036 121.776 324.037 121.405C331.039 121.095 337.172 120.723 337.668 120.599C338.164 120.475 343.678 120.351 349.936 120.289V120.289ZM190.271 272.866C189.528 273.981 188.97 275.531 188.97 276.398C188.97 277.266 189.528 279.497 190.147 281.356C190.767 283.215 192.068 286.438 193.059 288.483C194.051 290.528 196.095 293.441 197.644 294.99C199.999 297.283 201.176 297.965 204.459 298.708C207.557 299.452 212.7 299.638 227.384 299.638C243.926 299.576 246.591 299.452 248.635 298.523C250.184 297.841 251.237 296.787 251.857 295.3C252.6 293.565 252.662 292.635 252.105 290.528C251.733 289.041 250.99 286.996 250.494 286.004C249.936 285.013 248.573 282.967 247.458 281.542C246.281 280.055 244.422 278.443 243.369 277.886C242.254 277.328 239.218 276.336 236.677 275.717C234.137 275.097 231.225 274.539 230.172 274.539C229.18 274.539 226.207 274.167 223.666 273.672C221.126 273.176 215.55 272.37 211.275 271.812C207 271.317 201.424 270.759 198.883 270.635C196.343 270.449 193.617 270.511 192.873 270.635C192.13 270.821 190.953 271.812 190.271 272.866ZM476.143 316.928C459.043 317.238 458.795 317.3 457.68 318.664C457.06 319.469 456.564 320.833 456.626 321.824C456.626 322.754 457.184 324.055 457.865 324.737C459.043 325.915 459.91 325.976 483.888 325.976H508.671C510.653 323.312 511.211 322.072 511.149 321.514C511.149 320.895 510.901 319.841 510.529 319.159C510.219 318.478 508.98 317.61 507.927 317.3C506.812 316.928 503.218 316.495 499.997 316.309C496.775 316.123 493.987 316.061 493.801 316.247C493.615 316.495 485.684 316.743 476.143 316.928ZM206.318 319.779C205.884 320.647 205.699 322.072 205.946 323.064C206.132 323.993 206.814 324.985 207.433 325.295C207.991 325.605 218.648 326.038 231.101 326.286C247.148 326.596 254.459 326.534 256.38 326.038C258.3 325.543 259.23 324.861 259.911 323.498C260.717 321.824 260.717 321.452 259.911 319.779C259.416 318.788 258.3 317.61 257.433 317.3C256.504 316.928 246.776 316.681 232.836 316.681C215.426 316.681 209.416 316.867 208.425 317.486C207.681 317.92 206.69 318.974 206.318 319.779ZM164.807 552.301C168.028 552.239 174.906 552.487 179.986 552.797C185.129 553.106 192.502 553.912 196.405 554.594C200.308 555.275 205.079 556.205 206.938 556.701C208.796 557.197 211.213 558.002 214.063 559.366L213.877 564.262C213.815 566.988 213.319 572.876 212.762 577.276C212.266 581.738 211.708 585.394 211.523 585.518C211.337 585.642 199.441 585.704 185.067 585.642C169.577 585.642 157.991 585.89 156.628 586.262C155.327 586.634 154.026 587.439 153.654 588.121C153.345 588.803 153.035 589.918 153.035 590.6C153.035 591.282 153.654 592.583 154.46 593.575C155.265 594.504 157.124 595.868 158.673 596.611C160.16 597.293 162.39 598.347 163.568 598.842C164.745 599.338 168.276 600.825 171.312 602.065C174.41 603.304 177.756 604.73 178.747 605.164C179.8 605.659 183.146 607.023 186.182 608.324C189.28 609.564 193.307 611.423 195.166 612.476C197.025 613.468 199.999 615.203 201.671 616.319C203.406 617.496 206.318 619.913 208.177 621.772C210.036 623.631 212.514 626.916 213.691 629.085C214.868 631.254 216.355 634.848 216.975 637.079C217.842 640.116 218.09 643.277 218.09 650.094C218.09 657.221 217.842 660.071 216.789 664.038C216.107 666.764 214.806 670.421 213.939 672.094C213.01 673.829 210.841 676.742 209.106 678.601C207.124 680.646 204.274 682.753 201.919 683.931C199.751 685.046 195.6 686.472 192.688 687.153C189.776 687.897 185.067 688.827 182.155 689.26C179.119 689.694 171.622 690.066 164.497 690.066C157.682 690.066 148.636 689.694 144.361 689.26C140.086 688.765 134.262 688.021 131.35 687.525C128.438 687.029 123.357 685.976 119.95 685.232C116.604 684.489 113.63 683.559 113.32 683.249C113.01 682.877 113.01 680.274 113.32 677.052C113.63 673.953 114.064 668.128 114.311 664.038C114.559 659.947 114.931 656.167 115.241 655.671C115.736 654.866 119.392 654.804 143.865 654.99C171.746 655.237 171.932 655.237 174.286 653.936C176.145 652.82 176.579 652.201 176.579 650.714C176.579 649.66 175.959 648.111 175.154 647.181C174.1 645.942 168.71 643.277 156.69 638.071C147.335 633.981 138.041 629.767 135.996 628.713C133.952 627.66 130.73 625.8 128.871 624.561C127.013 623.384 123.791 620.719 121.746 618.674C119.702 616.628 117.285 613.592 116.356 611.919C115.427 610.245 114.064 606.961 113.32 604.544C112.143 600.825 111.895 598.842 111.957 590.91C111.957 583.101 112.143 580.808 113.382 576.656C114.126 573.929 115.489 570.459 116.356 568.91C117.161 567.36 118.896 565.067 120.135 563.766C121.375 562.464 123.791 560.605 125.464 559.614C127.199 558.622 129.801 557.383 131.35 556.825C132.899 556.267 136.678 555.275 139.714 554.594C142.812 553.912 148.388 553.106 152.105 552.859C155.885 552.549 161.585 552.301 164.807 552.301ZM532.214 553.168C539.587 553.354 546.093 553.85 550.492 554.594C554.271 555.275 558.732 556.205 560.405 556.639C562.14 557.135 565.424 558.498 567.778 559.676C570.132 560.853 573.726 563.332 575.77 565.191C577.815 567.05 580.417 570.087 581.533 571.884C582.71 573.619 584.197 576.284 584.878 577.772C585.498 579.197 586.613 582.048 587.233 584.093C587.914 586.138 588.905 590.042 589.463 592.769C590.021 595.496 590.764 600.825 591.074 604.544C591.446 608.262 591.694 615.947 591.694 621.586C591.694 627.226 591.26 635.592 590.764 640.178C590.33 644.764 589.587 649.97 589.153 651.643C588.782 653.378 587.852 656.415 587.233 658.46C586.551 660.505 585.188 663.852 584.197 665.897C583.205 667.942 581.037 671.288 579.426 673.333C577.753 675.379 574.903 678.167 573.044 679.593C571.186 680.956 567.468 683.001 564.742 684.055C562.016 685.17 557.431 686.596 554.519 687.277C550.12 688.393 546.527 688.641 533.144 688.951C524.284 689.137 507.431 688.951 495.659 688.579C476.267 688.021 474.222 687.835 473.479 686.844C472.859 685.976 472.735 672.156 472.735 555.276L474.16 555.028C474.904 554.842 479.86 554.532 485.127 554.284C490.393 554.036 500.616 553.664 507.741 553.416C514.928 553.106 525.895 553.044 532.214 553.168ZM514.928 621.648L515.176 658.46C535.498 658.77 535.684 658.708 538.658 657.035C540.764 655.919 542.251 654.432 543.367 652.573C544.296 650.961 545.473 647.305 546.217 643.896C547.208 638.939 547.394 635.344 547.332 620.967C547.332 607.395 547.084 602.871 546.217 598.656C545.659 595.744 544.606 592.211 543.986 590.786C543.305 589.299 541.818 587.439 540.764 586.572C539.649 585.704 537.171 584.651 535.312 584.093C533.144 583.535 529.116 583.163 524.098 583.163C518.274 583.163 516.043 583.411 515.424 584.031C514.804 584.651 514.68 592.273 514.928 621.648ZM283.269 555.09C314.372 555.152 340.208 555.214 340.642 555.214C341.2 555.275 341.323 558.684 341.076 585.952L304.521 586.572L304.335 636.46C304.273 664.038 303.901 686.596 303.591 686.968C303.282 687.339 295.847 687.525 283.022 687.401C272.055 687.339 262.885 687.091 262.699 686.906C262.514 686.72 262.266 664.038 261.77 586.572L244.112 586.386C231.411 586.262 226.207 586.014 225.649 585.456C225.029 584.898 224.843 581.242 224.782 570.335C224.72 557.692 224.843 555.895 225.711 555.461C226.207 555.214 252.167 555.028 283.269 555.09ZM374.533 555.337L397.333 555.276C420.071 555.276 420.071 555.275 423.045 556.763C424.656 557.568 426.701 559.18 427.568 560.295C428.498 561.473 429.675 563.642 430.17 565.191C430.666 566.74 431.719 570.211 432.463 572.938C433.206 575.665 434.198 579.011 434.631 580.374C435.065 581.738 435.932 584.651 436.49 586.882C437.11 589.113 437.915 592.149 438.411 593.699C438.844 595.248 439.65 597.913 440.146 599.586C440.579 601.321 442.066 606.465 443.305 611.051C444.545 615.637 445.908 620.533 446.341 621.896C446.837 623.26 447.642 626.172 448.262 628.403C448.82 630.634 449.687 633.671 450.183 635.22C450.616 636.77 451.36 639.434 451.856 641.108C452.351 642.843 453.776 647.987 455.077 652.573C456.316 657.159 458.175 663.604 459.105 666.826C460.034 670.049 461.273 674.511 461.893 676.742C462.45 678.973 463.318 681.948 463.813 683.435C464.371 685.046 464.495 686.348 464.123 686.844C463.689 687.401 458.981 687.525 422.364 686.968L421.311 682.939C420.753 680.708 419.824 676.804 419.204 674.263C418.646 671.722 417.717 667.632 417.159 665.277C416.664 662.922 415.982 660.505 415.734 660.009C415.363 659.204 412.698 659.08 397.457 659.08C382.215 659.08 379.551 659.204 379.179 660.009C378.932 660.505 378.25 662.922 377.754 665.277C377.197 667.632 376.267 671.722 375.71 674.263C375.152 676.804 374.037 680.832 372.054 687.401L351.608 687.339C340.394 687.277 330.977 687.029 330.729 686.782C330.481 686.534 330.853 684.365 331.534 682.01C332.216 679.655 333.145 676.308 333.641 674.573C334.074 672.9 335.128 668.995 336.057 665.897C336.924 662.798 338.102 658.646 338.659 656.601C339.217 654.556 340.456 650.218 341.385 646.995C342.315 643.773 343.74 638.877 344.483 636.15C345.227 633.423 346.28 629.829 346.776 628.093C347.209 626.42 348.015 623.755 348.449 622.206C348.944 620.657 349.812 617.62 350.369 615.389C350.989 613.158 351.856 609.997 352.29 608.262C352.786 606.589 353.591 603.8 354.087 602.065C354.582 600.392 355.76 596.487 356.627 593.389C357.556 590.29 358.61 586.448 359.043 584.713C359.477 583.039 360.592 578.949 361.522 575.727C362.451 572.504 363.752 568.166 364.434 566.121C365.115 564.076 366.292 561.473 367.036 560.357C367.779 559.242 369.762 557.692 371.435 556.825L374.533 555.337ZM394.359 590.6C394.111 592.521 393.43 596.549 392.81 599.586C392.191 602.685 391.075 607.828 390.332 611.051C389.65 614.336 388.597 618.798 388.039 620.967C387.544 623.198 387.048 625.986 386.986 627.164L386.924 629.333C406.751 629.643 407.742 629.581 408.114 628.589C408.361 627.969 408.114 625.677 407.556 623.445C406.998 621.276 405.945 616.938 405.202 613.84C404.52 610.803 403.529 606.589 403.095 604.544C402.599 602.499 401.794 598.347 401.236 595.248C400.741 592.211 400.183 588.989 400.121 588.121C399.997 586.82 399.625 586.572 397.705 586.386C396.466 586.324 395.288 586.448 395.164 586.696C394.979 587.005 394.607 588.741 394.359 590.6ZM284.88 710.331C286.987 710.269 290.89 710.703 293.554 711.199C296.218 711.757 299.44 712.81 300.803 713.616C302.166 714.359 303.839 715.847 304.521 716.838C305.202 717.768 306.256 719.689 306.875 721.052C307.495 722.416 308.3 726.506 308.734 730.039C309.23 734.934 309.23 738.281 308.734 743.363C308.3 747.949 307.557 751.357 306.565 753.588C305.698 755.695 304.149 757.74 302.786 758.856C301.547 759.909 299.192 761.273 297.582 761.893C295.041 762.822 292.749 763.008 280.543 762.946C272.799 762.946 266.169 762.76 265.797 762.574C265.426 762.388 265.178 753.278 265.178 737.165C265.178 717.706 265.364 712.005 265.983 711.757C266.417 711.571 269.948 711.199 273.852 710.889C277.817 710.641 282.774 710.393 284.88 710.331ZM279.056 737.847L279.118 752.659C287.482 752.968 288.846 752.721 290.271 751.791C291.572 750.985 292.501 749.622 293.244 747.329C294.05 744.912 294.36 742.061 294.36 736.856C294.36 731.65 294.05 728.923 293.244 726.692C292.625 725.019 291.448 723.16 290.58 722.478C289.403 721.61 287.978 721.362 284.261 721.362C280.915 721.362 279.366 721.61 279.18 722.168C279.056 722.602 278.994 729.667 279.056 737.847ZM338.907 711.323C345.227 711.447 351.051 711.633 351.794 711.819C353.095 712.066 353.157 712.438 353.219 716.281C353.219 718.76 352.91 720.805 352.476 721.238C351.918 721.796 349.006 721.982 342.067 721.982C333.641 721.982 332.278 722.106 331.348 723.098C330.481 723.903 330.295 725.019 330.543 730.968L339.836 731.154C346.28 731.278 349.316 731.588 349.626 732.084C349.874 732.517 350.059 734.377 350.059 736.236C350.059 738.157 349.874 740.016 349.626 740.388C349.316 740.946 346.28 741.194 330.543 741.503L330.357 745.842C330.233 749.436 330.419 750.366 331.286 750.985C332.092 751.543 335.314 751.791 342.191 751.791C351.299 751.729 351.98 751.853 352.538 752.968C352.91 753.65 353.095 756.005 353.033 758.112C352.848 761.831 352.786 761.954 350.989 762.388C349.998 762.574 343.678 762.822 336.924 762.822C326.082 762.884 324.409 762.76 322.365 761.707C321.063 761.087 319.576 760.033 319.019 759.414C318.461 758.794 317.594 757.368 317.036 756.253C316.169 754.518 315.983 751.667 315.983 736.856C315.983 720.743 316.107 719.379 317.222 717.024C317.904 715.661 319.267 714.05 320.196 713.368C321.125 712.686 323.17 711.943 324.657 711.633C326.206 711.323 332.649 711.199 338.907 711.323ZM414.185 711.757V721.672L407.556 721.858C401.36 721.982 400.865 722.106 400.183 723.407C399.625 724.399 399.563 729.853 399.811 743.053C400.121 756.315 399.997 761.583 399.502 762.14C399.006 762.636 396.775 762.884 392.872 762.946C388.907 762.946 386.738 762.698 386.243 762.14C385.685 761.583 385.561 756.749 385.871 743.053C386.119 729.853 385.995 724.399 385.499 723.407C384.818 722.106 384.322 721.982 371.435 721.672L371.249 717.396C371.125 715.041 371.187 712.748 371.435 712.314C371.683 711.633 375.524 711.509 414.185 711.757ZM433.392 711.757L433.702 729.729C434.012 744.788 434.198 748.011 435.065 749.56C435.623 750.613 436.8 751.791 437.667 752.225C438.597 752.659 440.27 752.968 441.447 752.968C442.686 752.968 444.359 752.659 445.288 752.225C446.155 751.791 447.333 750.613 447.89 749.56C448.758 748.011 448.944 744.788 449.501 711.757L462.822 711.447L463.256 713.182C463.504 714.112 463.504 722.664 463.256 732.208C462.946 745.966 462.636 750.242 461.831 752.659C461.273 754.394 460.158 756.625 459.414 757.616C458.609 758.67 456.502 760.343 454.706 761.335C451.422 763.194 451.298 763.194 442.066 763.194C433.516 763.194 432.525 763.07 429.427 761.645C427.568 760.839 425.214 759.104 424.161 757.864C423.107 756.625 421.806 754.146 421.187 752.287C420.319 749.56 420.071 745.718 419.886 730.968C419.7 721.115 419.762 712.686 419.947 712.252C420.133 711.633 421.93 711.447 433.392 711.757ZM435.871 786.124C452.537 786.248 457.122 786.496 460.654 787.301C463.07 787.921 466.416 788.789 468.088 789.346C469.823 789.904 472.735 791.268 474.594 792.383C476.639 793.561 478.931 795.606 480.17 797.403C481.409 799.014 482.834 801.369 483.392 802.547C483.949 803.786 484.879 806.575 485.56 808.744C486.49 812.09 486.676 814.941 486.676 825.477C486.676 836.012 486.49 838.925 485.56 842.209C484.941 844.44 483.888 847.353 483.268 848.716C482.648 850.08 481.285 852.373 480.17 853.798C479.117 855.223 476.639 857.33 474.718 858.446C472.797 859.623 469.823 860.987 468.088 861.607C466.416 862.164 462.202 863.094 458.795 863.652C454.148 864.395 449.439 864.581 426.577 864.209L426.453 883.421C426.329 894.018 426.019 902.88 425.771 903.128C425.462 903.438 417.531 903.624 408.114 903.624C398.696 903.624 390.704 903.438 390.332 903.252C389.96 903.066 389.712 883.235 389.712 845.804C389.712 792.755 389.774 788.541 390.766 787.673C391.571 786.991 394.421 786.682 403.591 786.372C410.096 786.124 424.656 786.062 435.871 786.124ZM426.205 825.167C426.267 834.277 426.453 837.809 427.073 838.367C427.61 838.904 429.778 839.172 433.578 839.172C436.738 839.172 440.765 838.801 442.562 838.429C444.359 837.995 446.589 837.003 447.519 836.26C448.696 835.268 449.439 833.781 449.935 831.55C450.307 829.753 450.492 826.034 450.307 823.307C450.183 820.581 449.687 817.544 449.191 816.552C448.696 815.561 447.333 814.073 446.094 813.268C444.111 811.966 443.305 811.843 435.561 811.843C430.914 811.843 426.887 812.028 426.577 812.276C426.329 812.524 426.143 818.288 426.205 825.167ZM540.269 786C549.005 785.938 558.732 786.124 561.954 786.434C565.238 786.744 569.884 787.425 572.363 787.921C574.841 788.479 577.319 789.161 577.939 789.47C578.559 789.78 580.417 790.648 582.09 791.392C583.825 792.197 586.303 793.685 587.604 794.738C588.967 795.792 590.888 797.961 591.941 799.448C592.933 800.997 594.42 804.158 595.225 806.451C596.216 809.302 596.774 812.772 597.084 817.296C597.332 821.386 597.146 825.724 596.712 828.575C596.278 831.55 595.225 834.587 593.986 836.88C592.933 838.925 591.012 841.404 589.773 842.457C588.472 843.573 586.241 844.998 584.816 845.742C583.329 846.423 580.975 847.353 579.612 847.725C578.249 848.097 576.762 848.716 576.204 849.026C575.399 849.584 575.399 849.77 576.204 850.266C576.762 850.637 577.629 850.885 578.249 850.885C578.868 850.885 580.231 851.319 581.347 851.815C582.462 852.311 584.445 853.674 585.808 854.79C587.295 856.029 589.153 858.57 590.268 860.863C591.322 863.094 592.375 865.573 592.499 866.378C592.685 867.246 594.42 874.063 596.34 881.562C598.323 889.06 600.182 896.497 600.491 897.985C600.801 899.534 601.421 901.021 601.793 901.269C602.226 901.517 602.908 901.269 603.342 900.649C603.775 900.03 604.147 899.162 604.147 898.604C604.147 898.109 604.519 896.311 605.076 894.576C605.572 892.903 606.687 889.06 607.555 886.086C608.36 883.111 609.785 878.215 610.591 875.241C611.458 872.266 612.573 868.3 613.069 866.378C613.626 864.519 614.742 860.491 615.609 857.392C616.538 854.356 617.406 851.257 617.592 850.575C617.778 849.894 618.583 846.981 619.45 844.068C620.318 841.218 621.371 837.437 621.805 835.702C622.239 834.029 623.292 830.124 624.159 827.026C625.027 823.989 626.204 819.961 626.761 818.04C627.319 816.181 628.125 813.268 628.62 811.533C629.116 809.859 630.231 806.079 631.036 803.166C631.842 800.316 632.895 796.845 633.329 795.544C633.825 794.18 635.312 792.073 636.799 790.71C638.719 788.975 640.144 788.231 642.065 787.983C643.49 787.797 653.341 787.735 683.205 787.983L685.621 789.656C686.984 790.586 688.657 792.383 689.338 793.685C690.082 794.986 690.949 797.155 691.321 798.518C691.693 799.882 692.994 804.53 694.233 808.744C695.472 813.02 696.897 818.164 697.455 820.209C698.013 822.254 699.19 826.592 700.181 829.815C701.11 833.099 702.907 839.482 704.146 844.068C705.447 848.716 706.81 853.55 707.306 854.914C707.74 856.277 708.545 859.066 709.041 861.111C709.599 863.156 710.776 867.37 711.643 870.407C712.573 873.505 713.44 876.542 713.626 877.224C713.812 877.905 714.803 881.686 715.918 885.59C717.033 889.556 718.644 895.01 719.45 897.799C720.255 900.649 720.751 903.066 720.565 903.252C720.441 903.438 712.201 903.562 702.288 903.562C692.436 903.562 684.134 903.376 683.886 903.128C683.638 902.88 682.957 900.587 682.275 897.985C681.656 895.444 680.479 890.548 679.735 887.139C678.93 883.731 678.124 880.57 677.876 880.013C677.443 879.269 675.026 879.083 646.03 879.083L643.738 888.069C642.437 893.027 641.259 898.047 641.074 899.224C640.826 900.464 640.33 901.889 639.896 902.509C639.153 903.562 636.984 903.624 601.607 903.624C581.037 903.562 563.999 903.376 563.751 903.128C563.565 902.88 562.945 900.711 562.388 898.294C561.83 895.94 560.901 891.601 560.219 888.689C559.6 885.838 558.546 881.066 557.989 878.153C557.369 875.303 556.316 870.964 555.572 868.609C554.457 865.015 553.838 864.023 552.041 862.846C550.058 861.483 549.377 861.421 535.002 861.731L534.383 903.252H499.067L498.757 787.673L500.182 787.301C500.926 787.053 506.75 786.682 513.008 786.434C519.327 786.248 531.595 786 540.269 786ZM534.755 824.361L535.002 835.082C553.156 835.082 554.457 834.958 556.378 833.843C557.989 832.913 558.856 831.798 559.662 829.505C560.343 827.522 560.715 825.105 560.591 822.688C560.467 820.581 559.847 817.916 559.166 816.552C558.422 815.127 557.059 813.702 555.758 813.02C553.961 812.028 552.165 811.843 544.854 811.843C538.224 811.843 535.87 812.09 535.312 812.71C534.631 813.392 534.507 815.995 534.755 824.361ZM659.165 817.73C659.165 818.783 658.546 822.812 657.74 826.716C656.873 830.682 655.386 837.623 654.333 842.209C653.341 846.857 652.474 851.071 652.474 851.691C652.412 852.682 653.279 852.745 661.705 852.745H670.999C670.999 850.142 670.751 848.406 670.38 847.167C670.008 845.99 669.326 843.077 668.831 840.66C668.335 838.305 667.282 833.285 666.414 829.505C665.547 825.786 664.865 821.696 664.865 820.395C664.865 819.093 664.555 817.358 664.184 816.49C663.75 815.375 663.13 814.941 661.829 814.941C660.838 814.941 659.847 815.127 659.537 815.375C659.289 815.623 659.103 816.676 659.165 817.73ZM281.101 787.983L283.517 789.594C284.88 790.462 286.553 792.135 287.297 793.313C287.978 794.49 289.031 797.961 289.651 800.997C290.209 804.096 291.076 808.744 291.572 811.409C292.067 814.073 292.873 818.35 293.368 821.014C293.864 823.679 294.67 828.203 295.227 831.054C295.723 833.967 296.466 837.871 296.838 839.73C297.21 841.651 297.891 846.795 298.325 851.195C298.821 855.657 299.254 859.5 299.254 859.747C299.254 859.995 299.688 860.181 300.184 860.181C300.741 860.181 301.237 859.561 301.423 858.818C301.547 858.074 301.857 855.471 302.042 853.054C302.29 850.699 302.848 846.113 303.344 842.829C303.901 839.606 304.707 834.71 305.202 831.984C305.636 829.257 306.503 824.423 307.061 821.138C307.557 817.916 308.424 813.206 308.858 810.603C309.353 808.062 309.911 804.716 310.097 803.166C310.345 801.679 310.964 798.89 311.46 796.969C312.08 794.697 313.153 792.796 314.682 791.268C315.921 789.966 317.904 788.603 319.081 788.293C320.32 787.983 330.047 787.735 340.766 787.735C351.546 787.735 361.274 787.983 362.451 788.293C363.69 788.603 365.673 789.904 366.85 791.206C368.709 793.189 369.204 794.304 369.762 797.899C370.134 800.316 370.753 811.037 371.125 821.758C371.435 832.541 372.054 848.964 372.364 858.322C372.736 867.742 373.294 881.5 373.665 888.999C373.975 896.497 374.099 902.88 373.789 903.128C373.541 903.376 366.23 903.562 357.494 903.562C348.82 903.624 341.633 903.5 341.571 903.438C341.509 903.376 341.014 896.311 340.518 887.759C340.022 879.269 339.589 868.362 339.527 863.59C339.527 858.818 339.093 848.097 338.597 839.73C338.102 831.426 337.73 822.564 337.73 820.085C337.668 817.11 337.42 815.437 336.924 815.189C336.491 814.941 335.809 815.313 335.376 815.933C334.942 816.614 334.322 818.969 333.951 821.138C333.641 823.369 332.959 827.026 332.464 829.195C331.968 831.426 331.162 835.64 330.605 838.491C330.047 841.404 329.18 845.99 328.622 848.716C328.127 851.443 327.321 855.657 326.887 858.012C326.392 860.429 325.586 864.457 325.091 866.998C324.533 869.601 323.975 872.638 323.728 873.815C323.542 875.055 322.736 877.224 321.993 878.773C321.249 880.322 319.638 882.12 315.797 884.66H284.632L282.34 882.987C281.101 882.058 279.49 880.384 278.808 879.269C278.127 878.153 277.445 876.666 277.321 875.984C277.198 875.303 276.64 872.824 276.144 870.407C275.649 868.052 274.657 863.032 273.914 859.252C273.232 855.533 272.179 850.39 271.683 847.787C271.188 845.246 270.382 841.218 269.887 838.801C269.453 836.446 268.585 832.232 268.028 829.505C267.532 826.778 266.665 822.44 266.107 819.775C265.364 815.809 264.992 815.003 264.124 815.127C263.133 815.251 262.947 816.8 262.328 830.806C261.956 839.296 261.274 858.384 260.903 873.195C260.531 888.069 259.973 900.959 259.726 901.889C259.54 902.818 258.92 903.624 258.362 903.748C257.867 903.81 250.68 903.81 242.439 903.748C231.039 903.624 227.384 903.376 227.198 902.818C227.074 902.385 227.198 895.32 227.508 887.139C227.755 878.959 228.251 866.131 228.623 858.632C228.995 851.133 229.552 836.074 229.924 825.167C230.296 814.259 230.791 802.98 231.101 800.068C231.411 796.907 232.092 794.056 232.774 792.879C233.394 791.825 234.633 790.4 235.438 789.718C236.306 789.036 237.731 788.293 238.536 788.169C239.403 787.983 249.317 787.859 281.101 787.983Z" fill="#3C3C3C"/>
<path fill-rule="evenodd" clip-rule="evenodd" d="M357.494 410.321C571.929 410.259 603.837 410.383 608.732 411.189C611.829 411.685 615.547 412.552 617.096 413.172C618.645 413.73 621.557 415.217 623.601 416.395C625.646 417.572 629.363 420.485 631.842 422.902C634.32 425.319 637.418 429.099 638.719 431.33C640.02 433.561 641.631 437.032 642.313 439.077C643.056 441.122 643.985 445.15 644.419 448.063C645.039 452.587 645.039 454.198 644.109 459.528C643.304 464.176 642.375 467.15 640.33 471.302C638.657 474.773 636.241 478.367 634.01 480.846C632.028 483.077 628.496 486.114 626.08 487.725C623.663 489.275 619.822 491.32 617.406 492.249C614.989 493.117 611.148 494.17 608.732 494.542C605.882 494.914 519.203 495.162 358.424 495.162C197.272 495.162 110.965 494.914 108.115 494.542C105.761 494.17 102.539 493.427 100.99 492.931C99.4414 492.373 97.2109 491.444 96.0337 490.886C94.8565 490.328 92.6261 489.089 91.0771 488.097C89.5282 487.106 86.8021 484.875 85.0053 483.139C83.1466 481.404 80.6683 478.429 79.4291 476.57C78.128 474.711 76.6411 472.17 76.0834 470.993C75.5258 469.815 74.4725 467.15 73.791 465.105C73.1714 463.06 72.428 459.156 72.1801 456.429C71.9942 453.702 72.1182 449.364 72.4899 446.823C72.8617 444.282 73.791 440.378 74.6584 438.147C75.4639 435.916 77.3226 432.384 78.6857 430.215C80.0487 428.108 82.3411 425.071 83.8281 423.46C85.2531 421.91 87.9793 419.617 89.838 418.378C91.6967 417.138 93.9272 415.775 94.7946 415.341C95.662 414.845 97.7685 413.978 99.4414 413.296C101.176 412.676 104.646 411.747 107.186 411.251C111.089 410.507 150.68 410.383 357.494 410.321ZM99.1316 419.741C97.2729 420.609 94.0511 422.53 92.0065 424.079C89.9619 425.567 86.988 428.603 85.3151 430.772C83.7042 432.941 81.4737 436.846 80.4205 439.387C78.4998 443.849 78.4378 444.406 78.3759 452.401C78.3759 459.652 78.5617 461.325 79.8009 464.795C80.6063 467.026 82.4651 470.621 83.952 472.852C85.3771 475.083 87.7314 477.934 89.1565 479.173C90.5195 480.474 93.2457 482.52 95.1044 483.697C96.9631 484.875 99.999 486.424 101.796 487.106C103.531 487.725 107.372 488.593 110.284 488.965C113.877 489.399 193.307 489.584 358.424 489.584C537.481 489.584 602.784 489.399 606.873 488.841C610.776 488.345 613.812 487.539 617.096 486.052C619.636 484.875 623.416 482.582 625.398 481.032C627.443 479.421 630.293 476.446 631.718 474.401C633.143 472.356 634.94 469.257 635.683 467.584C636.427 465.849 637.418 462.936 637.914 461.077C638.347 459.218 638.719 455.561 638.719 453.021C638.719 450.48 638.409 446.699 637.914 444.654C637.48 442.609 636.179 438.953 635.064 436.598C633.515 433.437 631.594 430.896 627.938 427.302C624.345 423.645 621.805 421.724 618.645 420.175C616.228 419.06 612.511 417.758 610.281 417.262C606.935 416.581 563.193 416.457 357.804 416.519C165.55 416.581 108.611 416.767 105.947 417.386C104.088 417.758 100.99 418.812 99.1316 419.741Z" fill="#3C3C3C"/>
<path d="M7.31084 736.112C7.18693 734.253 7.43476 733.633 8.98369 732.579C10.8424 731.34 10.9663 731.34 227.055 731.278L227.074 731.278L228.747 732.827C229.986 733.943 230.482 734.996 230.482 736.546C230.482 738.343 230.11 738.962 225.835 741.813H118.772C18.4632 741.813 11.6479 741.751 10.0989 740.76C9.10761 740.14 8.17825 739.396 7.93042 739.024C7.68259 738.715 7.3728 737.413 7.31084 736.112Z" fill="#3C3C3C"/>
<path d="M494.482 736.36C494.482 735.554 495.288 734.067 496.279 733.075L498.014 731.278H714.679L716.414 733.013C717.343 733.943 718.087 735.368 718.087 736.236C718.087 737.103 717.529 738.405 716.847 739.21C716.166 739.954 714.927 740.884 714.059 741.193C713.068 741.627 675.646 741.813 606.253 741.813C508.609 741.813 499.811 741.751 497.952 740.76C496.899 740.202 495.659 739.334 495.226 738.777C494.792 738.219 494.482 737.165 494.482 736.36Z" fill="#3C3C3C"/>
<path d="M421.806 133.675C421.744 128.779 421.992 124.565 422.302 124.317C422.612 124.069 423.727 124.007 424.718 124.255C425.71 124.441 429.675 124.999 433.392 125.495C437.11 125.99 441.881 126.672 443.925 127.044C445.97 127.416 449.749 128.16 452.289 128.655C454.83 129.213 458.299 130.143 460.034 130.638C461.707 131.196 464.495 132.498 466.23 133.427C467.903 134.419 470.815 136.65 472.612 138.385C474.47 140.182 477.011 143.157 478.312 145.016C479.551 146.875 481.967 150.656 483.578 153.382C485.189 156.109 489.092 163.67 492.314 170.115C495.474 176.56 498.138 182.076 498.138 182.386C498.138 182.634 498.943 184.555 499.873 186.724C500.802 188.831 502.289 192.301 503.095 194.47C503.962 196.577 505.015 198.313 505.387 198.313C505.821 198.313 507.432 196.639 508.981 194.594C510.529 192.549 512.326 190.69 512.946 190.442C513.627 190.132 517.717 190.132 522.116 190.38C526.453 190.566 532.4 191.186 535.312 191.743C538.224 192.239 542.128 193.293 543.987 193.975C545.845 194.656 548.571 195.958 549.996 196.763C551.483 197.631 552.97 198.932 553.342 199.738C553.962 200.915 553.838 201.287 552.475 202.341C551.607 203.023 549.129 204.448 546.96 205.563C544.792 206.617 541.818 208.042 540.269 208.724C538.72 209.406 536.242 210.335 534.693 210.831C533.144 211.389 530.79 212.133 529.427 212.566C528.063 213 525.399 213.558 523.541 213.868C521.682 214.116 518.212 214.673 515.796 215.107C513.194 215.541 508.237 215.665 503.404 215.479C499.005 215.293 493.677 214.859 491.632 214.426C489.588 214.054 486.49 213.31 484.817 212.876C483.082 212.38 481.162 211.885 480.48 211.699C479.799 211.575 477.816 210.893 476.143 210.211C474.408 209.592 470.505 207.794 467.345 206.307C464.185 204.82 461.645 203.208 461.583 202.837C461.583 202.341 462.451 202.031 463.876 202.031C465.177 202.031 470.133 202.465 474.904 202.961C479.675 203.394 483.764 203.704 484.012 203.518C484.321 203.394 484.507 202.837 484.507 202.341C484.507 201.845 484.136 200.482 483.64 199.428C483.206 198.313 482.34 196.146 481.72 194.597L481.719 194.594C481.1 193.045 480.046 190.566 479.365 189.017C478.745 187.467 476.577 182.881 474.594 178.791C472.612 174.701 469.514 168.69 467.779 165.467C465.982 162.244 463.318 157.968 461.831 156.047C460.344 154.064 458.052 151.771 456.75 150.903C455.511 150.098 453.033 148.982 451.36 148.487C449.625 147.991 444.793 146.999 440.518 146.318C436.243 145.636 430.976 144.892 428.746 144.706C426.515 144.458 424.099 143.901 423.293 143.405C421.992 142.599 421.93 142.103 421.806 133.675Z" fill="#3C3C3C"/>
<path d="M105.947 426.992C106.443 426.992 107.992 426.558 109.355 426.063C110.718 425.567 113.568 425.195 115.674 425.133C118.586 425.133 119.64 425.381 119.887 426.063C120.073 426.558 119.825 427.364 119.454 427.86C119.02 428.356 112.081 435.297 104.088 443.353C96.0957 451.409 89.4043 457.979 89.2185 457.979C89.0326 458.041 88.5989 457.669 88.2271 457.235C87.8554 456.801 87.3597 455.748 87.1739 454.88C86.926 454.012 87.0499 451.409 87.4217 448.993C87.7934 446.576 88.6608 443.539 89.3424 442.176C90.0239 440.812 90.8913 439.139 91.263 438.395C91.6968 437.714 92.812 436.164 93.8653 434.987C94.9185 433.809 96.7153 432.136 97.8925 431.206C99.0697 430.277 101.176 428.975 102.539 428.232C103.902 427.55 105.451 426.992 105.947 426.992Z" fill="#3C3C3C"/>
<path d="M109.169 446.328C119.516 435.978 128.933 426.992 130.11 426.373C131.969 425.381 133.704 425.195 141.696 425.133C149.565 425.133 151.238 425.319 151.486 426.063C151.672 426.682 144.608 434.181 130.792 447.877C119.206 459.404 107.93 470.621 105.699 472.852C101.734 476.818 101.61 476.88 99.999 475.951C99.0697 475.455 96.9631 473.72 95.2903 472.046C93.6794 470.435 91.8826 468.204 90.3956 465.105L109.169 446.328Z" fill="#3C3C3C"/>
<path d="M134.571 452.339C148.326 438.643 160.408 426.93 161.399 426.311C163.01 425.319 164.497 425.133 172.737 425.133C180.544 425.133 182.217 425.319 182.65 426.063C182.96 426.744 176.393 433.747 157.372 452.773C142.998 467.151 130.792 478.925 129.615 479.421C128.252 479.979 125.34 480.289 120.507 480.289C115.426 480.289 112.824 480.041 111.523 479.359C110.47 478.863 109.664 478.12 109.664 477.81C109.664 477.5 120.879 466.035 134.571 452.339Z" fill="#3C3C3C"/>
<path d="M165.55 452.587C179.305 438.829 191.386 427.054 192.378 426.373C194.05 425.257 195.104 425.133 203.84 425.257C211.77 425.443 213.443 425.629 213.629 426.373C213.691 426.93 202.972 438.085 188.041 453.021C173.914 467.151 161.585 479.049 160.593 479.483C159.602 479.917 155.885 480.227 151.672 480.289C147.644 480.289 143.679 479.979 142.812 479.669C141.944 479.359 141.139 478.677 140.953 478.306C140.767 477.81 151.176 466.903 165.55 452.587Z" fill="#3C3C3C"/>
<path d="M197.148 452.277C210.903 438.519 222.799 426.806 223.666 426.249C224.967 425.381 226.702 425.195 234.818 425.319C242.749 425.443 244.422 425.629 244.608 426.373C244.732 426.93 234.323 437.775 219.019 453.021C204.893 467.151 192.502 479.049 191.572 479.483C190.643 479.917 186.987 480.227 183.084 480.289C179.367 480.289 175.339 480.041 174.286 479.669C173.171 479.359 172.241 478.615 172.241 478.12C172.241 477.624 183.456 465.973 197.148 452.277Z" fill="#3C3C3C"/>
<path d="M228.127 452.587C241.882 438.891 253.777 427.116 254.645 426.434C256.07 425.319 257.123 425.195 265.487 425.133C273.17 425.071 274.905 425.257 275.586 426.063C276.206 426.868 272.551 430.773 250.494 452.835C234.88 468.39 223.79 478.987 222.613 479.483C221.312 479.979 217.966 480.289 213.753 480.289C210.035 480.289 206.256 479.979 205.389 479.669C204.521 479.359 203.716 478.677 203.53 478.306C203.344 477.81 213.753 466.903 228.127 452.587Z" fill="#3C3C3C"/>
<path d="M260.283 451.409C273.728 438.085 285.376 426.744 286.243 426.125C287.544 425.257 289.279 425.133 297.334 425.257C304.335 425.381 306.937 425.629 307.123 426.249C307.247 426.62 295.661 438.643 281.472 452.897C267.222 467.089 254.831 479.111 253.901 479.545C252.848 479.979 249.378 480.289 245.041 480.289C241.138 480.289 237.297 480.041 236.553 479.793C235.748 479.483 234.942 478.801 234.695 478.244C234.385 477.624 234.571 476.88 235.066 476.446C235.562 476.013 246.9 464.734 260.283 451.409Z" fill="#3C3C3C"/>
<path d="M288.845 452.587C302.6 438.829 314.682 427.054 315.673 426.373C317.284 425.319 318.585 425.133 326.515 425.133C333.888 425.071 335.685 425.257 336.429 426.063C337.234 426.93 334.694 429.657 311.336 453.021C291.571 472.728 284.818 479.111 283.145 479.607C281.968 479.979 278.003 480.289 274.347 480.289C270.63 480.289 266.974 479.979 266.107 479.669C265.24 479.359 264.434 478.677 264.248 478.306C264.062 477.81 274.471 466.903 288.845 452.587Z" fill="#3C3C3C"/>
<path d="M321.001 451.471C334.384 438.147 346.032 426.806 346.899 426.249C348.201 425.381 350.245 425.195 357.99 425.195C366.416 425.133 367.469 425.257 367.779 426.249C368.089 427.054 362.141 433.313 342.562 452.897C328.188 467.213 316.045 478.925 314.929 479.421C313.566 479.979 310.592 480.289 305.76 480.289C301.856 480.289 297.953 479.979 297.086 479.669C296.032 479.235 295.537 478.554 295.537 477.5C295.537 476.632 295.785 475.889 296.156 475.827C296.466 475.703 307.68 464.796 321.001 451.471Z" fill="#3C3C3C"/>
<path d="M351.484 452.091C365.239 438.457 377.135 426.806 378.002 426.249C379.241 425.319 380.914 425.195 389.092 425.319C397.023 425.443 398.696 425.629 398.882 426.373C399.006 426.93 388.287 438.023 373.293 453.021C359.167 467.151 346.837 479.049 345.908 479.483C344.855 479.917 341.137 480.227 336.924 480.289C332.277 480.289 329.056 479.979 328.064 479.545C327.197 479.111 326.515 478.306 326.515 477.81C326.515 477.314 337.792 465.725 351.484 452.091Z" fill="#3C3C3C"/>
<path d="M382.463 452.277C396.156 438.643 408.237 426.93 409.229 426.249C410.84 425.257 412.203 425.133 420.381 425.257C428.683 425.443 429.675 425.567 429.799 426.558C429.922 427.24 421.372 436.164 404.768 452.773C390.827 466.593 378.622 478.492 377.63 479.111C376.081 480.103 374.532 480.289 368.027 480.289C362.141 480.289 359.972 480.103 358.919 479.359C358.114 478.863 357.494 478.12 357.494 477.81C357.494 477.5 368.708 465.973 382.463 452.277Z" fill="#3C3C3C"/>
<path d="M413.38 452.587C427.134 438.829 439.216 427.054 440.207 426.434C441.88 425.319 443.057 425.195 451.608 425.319C458.671 425.381 461.211 425.629 461.397 426.187C461.521 426.62 449.935 438.643 435.746 452.897C421.496 467.089 409.105 479.111 408.175 479.545C407.122 479.979 403.652 480.289 399.315 480.289C395.412 480.289 391.509 479.979 390.641 479.669C389.774 479.359 388.969 478.677 388.783 478.306C388.597 477.81 399.006 466.903 413.38 452.587Z" fill="#3C3C3C"/>
<path d="M444.359 452.587C458.113 438.829 470.195 427.054 471.186 426.434C472.859 425.319 474.036 425.195 482.648 425.319C490.641 425.443 492.252 425.629 492.438 426.373C492.499 426.93 481.719 438.209 466.849 453.021C452.723 467.151 440.393 479.049 439.464 479.483C438.411 479.917 434.693 480.227 430.48 480.289C425.152 480.289 422.673 480.041 421.31 479.359C420.319 478.863 419.452 478.244 419.452 477.934C419.452 477.686 430.666 466.283 444.359 452.587Z" fill="#3C3C3C"/>
<path d="M476.019 452.091C489.711 438.457 501.607 426.806 502.475 426.249C503.776 425.381 505.51 425.195 513.875 425.319C521.186 425.443 523.788 425.629 523.974 426.187C524.098 426.62 512.388 438.705 498.014 453.021C481.347 469.567 471.124 479.297 469.947 479.669C468.956 480.041 464.928 480.289 461.149 480.289C456.812 480.289 453.528 479.979 452.599 479.483C451.731 479.111 451.05 478.306 451.05 477.81C451.05 477.314 462.264 465.725 476.019 452.091Z" fill="#3C3C3C"/>
</g>
<defs>
<clipPath id="clip0_43_873">
<rect width="728" height="906.041" fill="white"/>
</clipPath>
</defs>
</svg>
