<svg width="16" height="16" viewBox="0 0 16 16" fill="none" xmlns="http://www.w3.org/2000/svg">
<path d="M4.65549 6.75862V6.62844C4.65549 5.33639 4.57775 3.89621 5.48014 2.9715C5.99476 2.44417 6.82749 2 8.17273 2C9.51797 2 10.3507 2.44417 10.8653 2.9715C11.7677 3.89621 11.69 5.33639 11.69 6.62844V6.75862M3 7.79316C3 7.33609 3.37053 6.96558 3.82759 6.96558H12.5172C12.9743 6.96558 13.3448 7.33609 13.3448 7.79316V12.3449C13.3448 13.259 12.6038 14.0001 11.6897 14.0001H4.65517C3.74105 14.0001 3 13.259 3 12.3449V7.79316Z" stroke="#2B75B7" stroke-width="1.2" stroke-linecap="round" stroke-linejoin="round"/>
</svg>
