<?xml version="1.0" encoding="UTF-8" standalone="no"?>
<svg
   xmlns:dc="http://purl.org/dc/elements/1.1/"
   xmlns:cc="http://creativecommons.org/ns#"
   xmlns:rdf="http://www.w3.org/1999/02/22-rdf-syntax-ns#"
   xmlns:svg="http://www.w3.org/2000/svg"
   xmlns="http://www.w3.org/2000/svg"
   viewBox="0 0 184 53.333332"
   height="53.333332"
   width="184"
   xml:space="preserve"
   id="svg2"
   version="1.1"><metadata
     id="metadata8"><rdf:RDF><cc:Work
         rdf:about=""><dc:format>image/svg+xml</dc:format><dc:type
           rdf:resource="http://purl.org/dc/dcmitype/StillImage" /></cc:Work></rdf:RDF></metadata><defs
     id="defs6"><clipPath
       id="clipPath30"
       clipPathUnits="userSpaceOnUse"><path
         id="path28"
         d="M 0,40 H 138 V 0 H 0 Z" /></clipPath></defs><g
     transform="matrix(1.3333333,0,0,-1.3333333,0,53.333333)"
     id="g10"><path
       id="path12"
       style="fill:#ffffff;fill-opacity:1;fill-rule:nonzero;stroke:none"
       d="M 0,0 H 138 V 40 H 0 Z" /><g
       transform="translate(27.954,36)"
       id="g14"><path
         id="path16"
         style="fill:#0075bf;fill-opacity:1;fill-rule:nonzero;stroke:none"
         d="M 0,0 -5.251,-9.182 V 0 h -10.503 l -12.2,-19.939 h 7.046 l 8.372,14.427 0.046,-14.427 h 7.943 L 3.798,-5.918 V -20 h 5.941 v 18.906 l 0,1.094 z" /></g><path
       id="path18"
       style="fill:#0075bf;fill-opacity:1;fill-rule:nonzero;stroke:none"
       d="m 47.274,36 h -6.67 V 16 h 6.67 z" /><g
       transform="translate(49.8535,36)"
       id="g20"><path
         id="path22"
         style="fill:#0075bf;fill-opacity:1;fill-rule:nonzero;stroke:none"
         d="M 0,0 V -1.623 -5.111 -5.684 H 8.544 V -20 h 6.294 v 14.316 h 8.943 V -5.111 -1.623 0 Z" /></g><g
       id="g24"><g
         clip-path="url(#clipPath30)"
         id="g26"><g
           transform="translate(96.4444,36)"
           id="g32"><path
             id="path34"
             style="fill:#0075bf;fill-opacity:1;fill-rule:nonzero;stroke:none"
             d="m 0,0 c 0,0 -16.35,-0.066 -16.669,-0.113 -2.501,-0.374 -3.853,-2.036 -3.918,-4.781 -0.015,-0.638 -0.019,-2.267 -0.015,-2.468 0,-0.111 0.009,-0.222 0.018,-0.326 v -0.024 c 0.154,-1.878 1.095,-2.975 2.007,-3.604 0.912,-0.629 2.686,-0.788 2.686,-0.788 h 10.782 v -0.015 c 1.598,-0.076 2.521,-0.68 2.515,-1.641 0,-1.034 -1.048,-1.642 -2.883,-1.642 -3.884,0 -7.771,0.013 -11.657,0 h -1.46 c -0.558,0 -0.965,0.02 -1.26,0 h -0.757 v -4.408 h 3.48 v 0.029 c 2.245,0.016 4.491,-0.009 6.734,-0.009 2.977,0 5.956,-0.039 8.929,0.013 3.146,0.051 4.852,1.765 4.924,4.86 0.024,0.94 0.026,1.881 0,2.82 -0.063,2.485 -1.477,3.707 -2.566,4.27 -0.683,0.326 -1.433,0.485 -2.189,0.465 h -10.728 c 0,0 -1.585,-0.076 -2.007,0.263 -0.16,0.122 -0.289,0.279 -0.377,0.46 -0.088,0.181 -0.132,0.38 -0.128,0.582 0.009,1.034 1.047,1.641 2.878,1.641 3.887,0 7.774,-0.013 11.659,0 h 1.459 c 0.548,0 0.962,-0.02 1.261,0 h 0.757 l 0,4.416 z" /></g><g
           transform="translate(128.211,36)"
           id="g36"><path
             id="path38"
             style="fill:#0075bf;fill-opacity:1;fill-rule:nonzero;stroke:none"
             d="m 0,0 h -6.161 v -12.62 c 0,0 -0.033,-1.551 -1.618,-1.556 h -9.426 c -1.585,0 -1.618,1.556 -1.618,1.556 V 0 h -6.151 v -15.597 c 0,0 0.71,-4.241 5.098,-4.241 h 14.775 c 4.392,0 5.107,4.241 5.107,4.241 z" /></g><g
           transform="translate(131.836,36)"
           id="g40"><path
             id="path42"
             style="fill:#0075bf;fill-opacity:1;fill-rule:nonzero;stroke:none"
             d="M 0,0 H -0.29 V -20 H 0 5.939 V 0 Z" /></g><g
           transform="translate(109.679,5)"
           id="g44"><path
             id="path46"
             style="fill:#073568;fill-opacity:1;fill-rule:nonzero;stroke:none"
             d="M 0,0 H -1.216 L -1.224,3.36 -2.872,0.592 h -0.584 l -1.64,2.696 V 0 H -6.312 V 5.6 H -5.24 L -3.144,2.12 -1.08,5.6 h 1.064 z m -8.651,3.568 c 0,0.616 -0.4,0.976 -1.192,0.976 h -1.056 V 2.592 h 1.056 c 0.792,0 1.192,0.368 1.192,0.976 M -7.235,0 h -1.392 l -1.08,1.56 h -0.064 -1.128 V 0 h -1.296 v 5.6 h 2.424 c 1.496,0 2.432,-0.776 2.432,-2.032 0,-0.84 -0.424,-1.456 -1.152,-1.768 z m -8.998,1.008 c 1,0 1.752,0.728 1.752,1.792 0,1.064 -0.752,1.792 -1.752,1.792 -1,0 -1.752,-0.728 -1.752,-1.792 0,-1.064 0.752,-1.792 1.752,-1.792 m 0,-1.104 c -1.768,0 -3.064,1.232 -3.064,2.896 0,1.664 1.296,2.896 3.064,2.896 1.76,0 3.064,-1.224 3.064,-2.896 0,-1.672 -1.304,-2.896 -3.064,-2.896 m -3.534,4.656 h -2.936 V 3.08 h 2.592 V 2.04 h -2.592 V 0 h -1.296 v 5.6 h 4.232 z M -27.785,0 v 4.544 h -1.792 V 5.6 h 4.88 V 4.544 h -1.792 V 0 Z m -5.499,2.184 h 1.776 l -0.888,2.144 z M -30.604,0 -31.1,1.2 h -2.6 L -34.196,0 h -1.328 l 2.496,5.6 h 1.28 L -29.244,0 Z m -9.059,0 v 5.6 h 1.296 V 1.056 h 2.808 V 0 Z m -3.43,2.6 c 0.792,0 1.192,0.36 1.192,0.968 0,0.616 -0.4,0.976 -1.192,0.976 h -1.056 V 2.6 Z m 0.072,3 c 1.496,0 2.432,-0.776 2.432,-2.032 0,-1.248 -0.936,-2.024 -2.432,-2.024 h -1.128 V 0 h -1.296 V 5.6 Z M -52.538,0 v 5.6 h 1.296 V 1.056 h 2.808 V 0 Z m -4.621,2.184 h 1.776 l -0.888,2.144 z M -54.479,0 -54.975,1.2 h -2.6 L -58.071,0 h -1.328 l 2.496,5.6 h 1.28 L -53.119,0 Z m -7.688,0 V 4.544 H -63.96 V 5.6 h 4.881 V 4.544 h -1.793 V 0 Z m -3.785,5.6 h 1.296 V 0 h -1.296 z M -68.34,1.248 v 1.64 h 1.184 V 0.616 c -0.616,-0.464 -1.464,-0.712 -2.264,-0.712 -1.76,0 -3.056,1.208 -3.056,2.896 0,1.688 1.296,2.896 3.08,2.896 0.984,0 1.8,-0.336 2.344,-0.968 L -67.884,3.96 c -0.408,0.432 -0.88,0.632 -1.448,0.632 -1.088,0 -1.832,-0.728 -1.832,-1.792 0,-1.048 0.744,-1.792 1.816,-1.792 0.352,0 0.68,0.064 1.008,0.24 M -74.749,5.6 h 1.296 V 0 h -1.296 z m -5.314,-4.536 h 1.184 c 1.112,0 1.84,0.664 1.84,1.736 0,1.072 -0.728,1.736 -1.84,1.736 h -1.184 z M -81.359,0 v 5.6 h 2.544 c 1.832,0 3.088,-1.104 3.088,-2.8 0,-1.696 -1.256,-2.8 -3.088,-2.8 z" /></g><g
           transform="translate(0,6.5)"
           id="g48"><path
             id="path50"
             style="fill:none;stroke:#073568;stroke-width:1;stroke-linecap:butt;stroke-linejoin:miter;stroke-miterlimit:4;stroke-dasharray:none;stroke-opacity:1"
             d="M 0,0 H 24" /></g><g
           transform="translate(114,7.5)"
           id="g52"><path
             id="path54"
             style="fill:none;stroke:#073568;stroke-width:1;stroke-linecap:butt;stroke-linejoin:miter;stroke-miterlimit:4;stroke-dasharray:none;stroke-opacity:1"
             d="M 0,0 H 24" /></g></g></g></g></svg>