<svg width="428" height="117" viewBox="0 0 428 117" fill="none" xmlns="http://www.w3.org/2000/svg">
<path fill-rule="evenodd" clip-rule="evenodd" d="M126.934 61.1001H148.3V0.233398H126.934V61.1001ZM88.067 0.233398L69.9337 31.3001V0.233398H39.5003L0.666992 61.1001H24.6337L48.567 19.6334V61.1001H74.467L99.1003 20.2668V61.1001H118.5V0.233398H88.067ZM229.2 0.233398H155.4V18.3667H182.067V61.1001H202.8V18.3667H229.467L229.2 0.233398Z" fill="#0075B9"/>
<path d="M427.333 0.233398H406.633V61.1001H427.333V0.233398Z" fill="#0075B9"/>
<path fill-rule="evenodd" clip-rule="evenodd" d="M378.1 0.233398V37.1334C378.1 41.0334 376.834 42.9668 372.934 42.9668H346.267C342.367 42.9668 341.1 41.0334 341.1 37.1334V0.233398H320.667V39.0666C320.667 56.5333 328.434 61.1001 341.4 61.1001H378.267C391.234 61.1001 399 56.5333 399 39.0666V0.233398H378.1Z" fill="#0075B9"/>
<path fill-rule="evenodd" clip-rule="evenodd" d="M253.166 0.233398C240.866 0.233398 235.066 5.8999 235.066 15.8999V24.0001C235.066 30.3001 239.566 37.8333 252.533 37.8333H284.266C288.166 37.8333 290.933 39.6333 290.933 42.1666C290.933 44.6999 288.866 46.7332 285 46.7332H235.066V61.2H294.6C304.966 61.2 310.8 54.8 310.8 45.3667V38.4333C310.8 34.0666 309.5 22.7668 294.6 22.7668H260.266C259.672 22.8073 259.075 22.7284 258.511 22.5346C257.947 22.3409 257.428 22.0361 256.983 21.6384C256.539 21.2408 256.179 20.7584 255.924 20.2194C255.669 19.6803 255.525 19.0957 255.5 18.5C256.166 16.6333 257.7 14.6666 262.866 14.6666H310.133V0.233398H253.166Z" fill="#0075B9"/>
<path d="M28.567 83.1994H27.3337C27.5029 81.861 27.603 80.5149 27.6337 79.1662C27.6978 78.033 27.3148 76.92 26.567 76.0662C26.2017 75.6763 25.7564 75.3699 25.2616 75.1686C24.7667 74.9672 24.2341 74.8754 23.7004 74.8994C22.7899 74.8983 21.8882 75.0773 21.0472 75.4263C20.2062 75.7753 19.4426 76.2874 18.8004 76.9329C18.1648 77.5146 17.6539 78.2192 17.2987 79.0042C16.9435 79.7892 16.7513 80.6381 16.7337 81.4995C16.7271 82.3548 16.9211 83.1996 17.3003 83.9662C17.9996 85.0902 18.8523 86.111 19.8337 86.9994C21.6317 88.6342 23.2114 90.494 24.5337 92.5329C25.2352 93.7039 25.6253 95.035 25.667 96.3994C25.6474 98.3177 25.0554 100.186 23.967 101.766C22.7025 103.601 20.9783 105.073 18.967 106.033C16.8076 107.127 14.4211 107.698 12.0003 107.699C9.80263 107.758 7.64703 107.09 5.86702 105.799C5.17501 105.376 4.59153 104.797 4.16323 104.109C3.73493 103.42 3.47371 102.641 3.40039 101.833C3.36871 101.153 3.59492 100.486 4.03373 99.9661C4.21307 99.7396 4.44086 99.5561 4.70044 99.4292C4.96002 99.3023 5.24474 99.2351 5.53367 99.2327C5.80718 99.2298 6.07789 99.2884 6.32591 99.4038C6.57392 99.5191 6.79303 99.6884 6.96708 99.8994C7.31614 100.46 7.55379 101.082 7.66705 101.733C7.8279 102.635 8.16787 103.497 8.66701 104.266C9.10749 104.808 9.66632 105.241 10.3004 105.533C10.9962 105.87 11.7606 106.041 12.5337 106.033C14.9028 106.053 17.1908 105.171 18.9337 103.566C19.7515 102.909 20.4187 102.083 20.8902 101.146C21.3618 100.209 21.6266 99.1813 21.667 98.1328C21.6613 97.4391 21.5373 96.7515 21.3004 96.0995C20.9929 95.2751 20.5661 94.5002 20.0337 93.7995C19.1579 92.716 18.2114 91.6914 17.2003 90.7327C16.2323 89.8199 15.33 88.8396 14.5003 87.7994C13.9974 87.091 13.5937 86.3171 13.3004 85.4994C13.0652 84.755 12.9416 83.9799 12.9337 83.1994C12.9631 81.5094 13.5099 79.8691 14.5003 78.4994C15.5442 76.8967 16.9799 75.587 18.6716 74.6945C20.3633 73.802 22.2548 73.3562 24.167 73.3993C25.4799 73.4163 26.7872 73.5728 28.067 73.8661L30.367 74.266C30.0183 75.2817 29.7289 76.3168 29.5003 77.366C29.2003 78.366 28.9337 80.2994 28.567 83.1994Z" fill="#0075B9"/>
<path d="M34.3666 88.3996L33.2666 87.5331C34.5813 85.9548 36.1467 84.6034 37.9 83.5331C38.9695 82.8404 40.1959 82.4278 41.4666 82.3331C41.9184 82.3059 42.3658 82.4354 42.7333 82.6998C42.8766 82.8153 42.9907 82.9631 43.066 83.1311C43.1413 83.2991 43.1758 83.4825 43.1666 83.6663C42.7488 85.7895 42.1921 87.8829 41.4999 89.933C40.2708 93.4882 39.3671 97.1478 38.7999 100.866C38.7948 101.084 38.8655 101.296 38.9999 101.466C39.0396 101.53 39.0931 101.585 39.1566 101.625C39.2201 101.665 39.2918 101.691 39.3666 101.7C39.9332 101.7 41.2999 100.633 43.5666 98.3665L44.5667 99.3331C43.0152 100.904 41.3062 102.312 39.4667 103.533C38.6799 104.058 37.7749 104.378 36.8333 104.466C36.5683 104.475 36.3043 104.43 36.0577 104.332C35.8112 104.235 35.5873 104.087 35.4 103.9C35.0431 103.458 34.8646 102.9 34.8999 102.333C35.6272 97.0272 36.9007 91.8105 38.7 86.7663C38.8244 86.4241 38.892 86.0637 38.8999 85.6996C38.8999 85.3663 38.7332 85.1998 38.4332 85.1998C38.0155 85.226 37.6126 85.3642 37.2666 85.5997C36.2416 86.4707 35.2729 87.4058 34.3666 88.3996ZM44.3666 71.4998C44.609 71.4887 44.851 71.5306 45.0756 71.6227C45.3001 71.7148 45.5018 71.8549 45.6666 72.033C45.8347 72.2107 45.9655 72.4201 46.0513 72.6491C46.1372 72.8781 46.1764 73.1221 46.1666 73.3665C46.181 74.0976 45.9054 74.8045 45.4 75.333C45.1886 75.5916 44.9248 75.8025 44.6261 75.9519C44.3273 76.1013 44.0003 76.1857 43.6666 76.1997C43.4249 76.2045 43.1849 76.1596 42.9613 76.0679C42.7377 75.9761 42.5353 75.8396 42.3666 75.6665C42.0263 75.2814 41.8472 74.7799 41.8666 74.2663C41.8432 73.5399 42.1066 72.8336 42.5999 72.2998C42.8249 72.045 43.1022 71.8415 43.4128 71.7035C43.7234 71.5654 44.06 71.4961 44.3999 71.4998H44.3666Z" fill="#0075B9"/>
<path d="M62.2336 97.4999L63.067 98.6331C58.9003 102.6 55.3337 104.567 52.367 104.567C51.844 104.598 51.3209 104.506 50.8402 104.297C50.3595 104.089 49.9347 103.77 49.6003 103.367C48.8515 102.199 48.5116 100.815 48.6337 99.4333C48.7091 95.571 49.8637 91.8068 51.967 88.5666C52.7622 86.8358 54.0077 85.3504 55.5733 84.2656C57.1389 83.1808 58.9671 82.5363 60.867 82.3998C61.8762 82.3337 62.8707 82.6693 63.6337 83.3332C63.9549 83.6565 64.2063 84.0422 64.3725 84.4664C64.5388 84.8907 64.6163 85.3445 64.6003 85.7999C64.5955 87.0047 64.1976 88.1751 63.467 89.1332C62.3352 90.5189 60.9277 91.6541 59.3337 92.4665C58.367 93.0332 56.2669 94.0664 53.0336 95.4998C52.8776 96.3688 52.7996 97.2503 52.8004 98.1332C52.7237 99.0159 52.9216 99.9007 53.367 100.667C53.5703 100.906 53.8271 101.094 54.1167 101.216C54.4062 101.337 54.7204 101.389 55.0336 101.366C55.8332 101.354 56.6195 101.16 57.3336 100.8C59.066 99.8546 60.7065 98.7499 62.2336 97.4999ZM53.3003 93.7999C55.5838 92.886 57.6755 91.5516 59.467 89.8664C60.2938 89.1052 60.7951 88.0548 60.867 86.9333C60.8966 86.3056 60.695 85.6888 60.3004 85.1999C60.1177 84.9818 59.8875 84.8084 59.6275 84.6929C59.3676 84.5773 59.0846 84.5226 58.8003 84.5332C58.127 84.5491 57.4796 84.7964 56.967 85.2332C56.0708 86.0062 55.3831 86.9919 54.967 88.0999C54.1893 89.9277 53.6299 91.841 53.3003 93.7999Z" fill="#0075B9"/>
<path d="M70.0665 88.3332L69.2998 87.2998C70.7183 85.8474 72.3341 84.6019 74.0998 83.5999C75.1936 82.9327 76.4244 82.5222 77.6998 82.3997C77.9857 82.3795 78.2696 82.4622 78.4998 82.6331C78.5885 82.7122 78.6585 82.8102 78.7046 82.9198C78.7507 83.0293 78.7719 83.1477 78.7665 83.2664C78.7042 83.9345 78.5701 84.5939 78.3665 85.2332C77.9665 86.6332 77.6998 87.7665 77.5331 88.5665C81.5998 84.4332 84.7331 82.3664 86.8664 82.3664C87.0962 82.345 87.3279 82.3727 87.5463 82.4473C87.7646 82.522 87.9646 82.6421 88.1331 82.7997C88.4568 83.2168 88.6115 83.7404 88.5665 84.2664C88.472 85.5168 88.2143 86.7497 87.7999 87.9332C89.294 86.285 90.9973 84.8392 92.8665 83.6331C93.8518 82.9341 94.9991 82.4982 96.1998 82.3664C96.5039 82.3474 96.8086 82.391 97.0952 82.4941C97.3818 82.5973 97.6443 82.7582 97.8665 82.9666C98.0865 83.2282 98.2527 83.5306 98.3557 83.8566C98.4586 84.1827 98.4963 84.5258 98.4665 84.8664C98.4455 85.4745 98.3561 86.0784 98.1998 86.6665C98.0332 87.3665 97.3999 89.4997 96.3332 93.0331C95.4338 95.602 94.7645 98.2457 94.3332 100.933C94.3332 101.5 94.5665 101.8 95.0331 101.8C95.3735 101.8 95.7035 101.683 95.9665 101.467C97.0811 100.689 98.1191 99.8073 99.0664 98.833L99.8998 99.7665C99.5664 100.033 98.8665 100.633 97.8999 101.533C97.0262 102.37 96.09 103.138 95.0998 103.833C94.3506 104.324 93.4918 104.621 92.5998 104.7C92.3278 104.688 92.0624 104.613 91.8249 104.48C91.5875 104.347 91.3848 104.159 91.2332 103.933C90.822 103.325 90.6227 102.599 90.6665 101.866C90.6788 100.902 90.7905 99.9414 90.9998 98.9999C91.2443 97.911 91.9443 95.4442 93.0999 91.5998C93.6915 89.9099 94.1266 88.1693 94.3998 86.3998C94.3998 85.7998 94.1332 85.5331 93.6332 85.5331C93.0189 85.583 92.4304 85.8022 91.9332 86.1664C90.5044 87.0267 89.2586 88.1592 88.2665 89.4998C87.3892 90.7639 86.7768 92.1927 86.4664 93.6998C85.3331 97.8998 84.4665 101.333 83.9332 103.967H80.2999L83.9998 88.3332C84.1704 87.697 84.304 87.0514 84.3998 86.3998C84.4163 86.1709 84.3448 85.9443 84.1998 85.7664C84.0441 85.6287 83.8409 85.5569 83.6332 85.5664C82.8239 85.7077 82.0719 86.0779 81.4665 86.6331C80.0759 87.5312 78.8475 88.6583 77.8331 89.9665C76.9146 91.5668 76.2829 93.3153 75.9665 95.1331L73.9998 103.733H70.3331L73.1998 91.5998C74.0665 88.0664 74.4998 86.1332 74.4998 85.8332C74.4998 85.5332 74.3332 85.2666 74.0332 85.2666C73.7332 85.2666 72.0998 86.3998 70.0665 88.3332Z" fill="#0075B9"/>
<path d="M104.933 88.7996L103.933 87.7663C105.224 86.1377 106.793 84.7496 108.566 83.6661C109.746 82.8761 111.116 82.4159 112.533 82.3329C112.714 82.3176 112.895 82.3391 113.067 82.3964C113.239 82.4537 113.398 82.5456 113.533 82.6662C113.666 82.7798 113.769 82.9244 113.833 83.0871C113.897 83.2499 113.92 83.4259 113.9 83.5996C113.908 84.1047 113.853 84.6086 113.733 85.0994C113.733 85.6328 113.3 86.8663 112.7 88.7996C114.343 87.0463 116.127 85.4298 118.033 83.9662C119.32 83.0353 120.847 82.4916 122.433 82.3994C122.872 82.4104 123.302 82.5285 123.686 82.7435C124.069 82.9584 124.394 83.2636 124.633 83.6328C125.275 84.7559 125.576 86.0416 125.5 87.3329C125.477 91.5482 124.137 95.6508 121.666 99.0661C120.824 100.628 119.606 101.955 118.122 102.927C116.637 103.899 114.934 104.485 113.166 104.633C111.869 104.615 110.596 104.271 109.466 103.633L107.3 112.066C107.181 112.467 107.114 112.882 107.1 113.3C107.082 113.569 107.138 113.839 107.261 114.079C107.385 114.32 107.571 114.522 107.8 114.666C109.278 115.26 110.843 115.609 112.433 115.699L112.1 116.966C109.366 116.766 107.2 116.633 105.633 116.633C104.066 116.633 101.933 116.633 99.3662 116.966L99.6996 115.699C100.735 115.664 101.731 115.289 102.533 114.633C103.251 113.733 103.732 112.667 103.933 111.533L108.566 92.1995C109.433 88.5661 109.866 86.5661 109.866 86.1661C109.877 86.076 109.867 85.9846 109.837 85.8988C109.808 85.813 109.759 85.7353 109.695 85.6711C109.631 85.607 109.553 85.558 109.467 85.5283C109.381 85.4986 109.29 85.4887 109.2 85.4994C108.466 85.4994 107.033 86.5996 104.933 88.7996ZM110.1 100.833C110.619 101.427 111.252 101.91 111.962 102.254C112.673 102.598 113.445 102.794 114.233 102.833C116.266 102.833 118.033 101.266 119.6 98.0662C121.065 95.1818 121.851 92.001 121.9 88.7662C121.945 87.977 121.709 87.1972 121.233 86.5661C121.021 86.3153 120.755 86.116 120.455 85.9832C120.154 85.8504 119.828 85.7876 119.5 85.7995C118.472 85.8896 117.501 86.3106 116.733 86.9995C115.351 88.0412 114.136 89.289 113.133 90.6994C112.326 92.1297 111.763 93.6842 111.466 95.2994L110.1 100.833Z" fill="#0075B9"/>
<path d="M135.033 103.9H131.233L133 97.2337C133.866 93.9004 134.633 90.567 135.266 87.6337C135.383 87.1743 135.461 86.7061 135.5 86.2337C135.5 85.8337 135.333 85.6004 134.933 85.6004C134.509 85.6899 134.111 85.872 133.766 86.1336C132.755 86.9366 131.797 87.8053 130.9 88.7337L130.133 87.8337C131.532 86.2679 133.175 84.9395 134.999 83.9004C136.132 83.1889 137.406 82.7338 138.733 82.567C138.996 82.5621 139.254 82.6441 139.466 82.8003C139.547 82.8641 139.613 82.9451 139.659 83.0373C139.705 83.1295 139.73 83.2307 139.733 83.3338C139.675 83.9315 139.563 84.5226 139.399 85.1003L138.3 89.7003C139.871 87.1076 141.788 84.7414 143.999 82.6671C144.704 81.9352 145.629 81.4551 146.633 81.3005C146.867 81.294 147.1 81.3348 147.317 81.4207C147.535 81.5066 147.733 81.6358 147.9 81.8004C148.057 81.9441 148.183 82.1191 148.269 82.3143C148.355 82.5094 148.4 82.7205 148.4 82.9338C148.403 83.1574 148.36 83.3792 148.274 83.5856C148.188 83.792 148.061 83.9786 147.9 84.1337C147.15 84.6534 146.315 85.0371 145.433 85.2671C144.333 85.6068 143.297 86.1247 142.366 86.8004C141.379 87.5888 140.504 88.5084 139.766 89.5337C138.97 90.5559 138.309 91.6762 137.8 92.867C137.076 94.9356 136.497 97.0519 136.066 99.2005L135.033 103.9Z" fill="#0075B9"/>
<path d="M162.1 97.5003L162.933 98.6335C158.766 102.6 155.2 104.567 152.233 104.567C151.71 104.598 151.187 104.506 150.706 104.298C150.225 104.089 149.801 103.77 149.466 103.367C148.744 102.188 148.406 100.813 148.5 99.4337C148.561 95.5691 149.716 91.801 151.833 88.567C152.622 86.8319 153.866 85.3427 155.433 84.2571C157 83.1715 158.831 82.5297 160.733 82.4002C161.741 82.3413 162.733 82.676 163.5 83.3336C163.815 83.6597 164.06 84.0466 164.221 84.4707C164.381 84.8948 164.453 85.3472 164.433 85.8003C164.428 87.0051 164.03 88.1755 163.3 89.1336C162.174 90.5123 160.779 91.6466 159.2 92.4669C158.2 93.0336 156.1 94.0668 152.866 95.5002C152.71 96.3692 152.632 97.2507 152.633 98.1336C152.556 99.0163 152.754 99.9011 153.2 100.667C153.408 100.9 153.665 101.084 153.954 101.205C154.242 101.326 154.554 101.382 154.866 101.367C155.666 101.354 156.452 101.16 157.166 100.8C158.91 99.8568 160.562 98.752 162.1 97.5003ZM153.166 93.8003C155.45 92.8864 157.541 91.552 159.333 89.8668C160.16 89.1056 160.661 88.0552 160.733 86.9337C160.776 86.3043 160.573 85.6828 160.166 85.2003C159.989 84.9761 159.76 84.7982 159.498 84.6821C159.237 84.566 158.952 84.515 158.666 84.5336C157.994 84.5548 157.348 84.8014 156.833 85.2336C155.937 86.0066 155.249 86.9923 154.833 88.1003C154.055 89.9281 153.496 91.8414 153.166 93.8003Z" fill="#0075B9"/>
<path d="M198.133 82.0336L199.8 81.667L197.9 88.1337C197.133 90.7003 196.4 93.6669 195.733 97.0002C195.461 98.1631 195.271 99.3439 195.166 100.534C195.166 101.034 195.4 101.3 195.8 101.3C196.273 101.24 196.721 101.056 197.1 100.767C198.206 100.121 199.225 99.3371 200.133 98.4336L200.966 99.4337C199.789 100.617 198.542 101.73 197.233 102.767C196.277 103.455 195.234 104.015 194.133 104.434C193.526 104.665 192.883 104.789 192.233 104.8C192.053 104.816 191.871 104.794 191.699 104.737C191.527 104.679 191.368 104.587 191.233 104.467C191.123 104.352 191.036 104.216 190.979 104.067C190.922 103.918 190.895 103.76 190.9 103.6C190.918 103.234 190.997 102.874 191.133 102.534L192.133 99.2004C190.645 100.985 188.878 102.516 186.9 103.734C185.914 104.415 184.762 104.818 183.566 104.9C183.134 104.92 182.703 104.837 182.309 104.657C181.914 104.477 181.569 104.206 181.3 103.867C180.538 102.789 180.162 101.485 180.233 100.167C180.291 98.0894 180.779 96.0464 181.666 94.167C182.611 91.9552 183.918 89.9162 185.533 88.1337C186.942 86.475 188.678 85.1246 190.633 84.167C192.305 83.4528 194.116 83.1223 195.933 83.2002H197.6L198.133 82.0336ZM194.966 85.9336C194.201 85.7606 193.418 85.6714 192.633 85.667C191.202 85.638 189.799 86.0705 188.633 86.9004C187.218 88.139 186.13 89.7075 185.466 91.467C184.504 93.5578 184.003 95.8318 184 98.1337C183.922 99.0101 184.132 99.8881 184.6 100.634C184.773 100.877 185.004 101.074 185.271 101.207C185.539 101.341 185.834 101.407 186.133 101.4C187.585 101.269 188.931 100.589 189.9 99.5002C191.373 97.9861 192.4 96.0943 192.866 94.0335L194.966 85.9336Z" fill="#0075B9"/>
<path d="M228.134 82.467C229.361 82.4007 230.579 82.7025 231.634 83.3337C231.992 83.5435 232.292 83.8393 232.508 84.1943C232.723 84.5493 232.847 84.9523 232.867 85.367C232.873 85.594 232.828 85.8194 232.735 86.027C232.643 86.2345 232.506 86.4189 232.334 86.5669C232.169 86.7359 231.972 86.8702 231.754 86.9618C231.537 87.0534 231.303 87.1006 231.067 87.1004C230.774 87.0943 230.487 87.014 230.234 86.867C229.838 86.5627 229.499 86.1902 229.234 85.7669C228.973 85.319 228.611 84.9382 228.177 84.6547C227.743 84.3711 227.249 84.1927 226.734 84.1336C226.39 84.1336 226.049 84.2047 225.734 84.3424C225.418 84.48 225.134 84.6812 224.9 84.9336C224.637 85.1942 224.43 85.5063 224.292 85.8504C224.155 86.1944 224.089 86.5633 224.1 86.9337C224.104 87.6416 224.275 88.3384 224.6 88.967C225.329 90.1705 226.19 91.2886 227.167 92.3004C228.809 93.7659 229.823 95.8068 230 98.0002C229.99 98.91 229.778 99.8064 229.381 100.625C228.983 101.443 228.409 102.163 227.7 102.734C226.05 104.109 223.947 104.821 221.8 104.734C220.192 104.863 218.589 104.426 217.267 103.5C216.81 103.138 216.44 102.677 216.186 102.152C215.932 101.627 215.8 101.051 215.8 100.467C215.787 99.9124 215.99 99.3743 216.367 98.967C216.545 98.786 216.758 98.6424 216.993 98.5451C217.228 98.4477 217.48 98.3985 217.734 98.4002C218.188 98.3974 218.628 98.5638 218.967 98.8669C219.125 99.0028 219.252 99.1717 219.339 99.3617C219.425 99.5517 219.469 99.7583 219.467 99.967C219.481 100.189 219.481 100.412 219.467 100.634V101.2C219.466 101.477 219.528 101.75 219.65 101.999C219.771 102.247 219.948 102.465 220.167 102.634C220.7 103.043 221.363 103.244 222.034 103.2C222.87 103.229 223.701 103.07 224.467 102.734C225.144 102.448 225.715 101.959 226.1 101.334C226.446 100.758 226.641 100.105 226.667 99.4337C226.672 98.7837 226.487 98.1463 226.134 97.6002C225.401 96.5198 224.575 95.505 223.667 94.567C222.103 93.0625 221.153 91.0315 221 88.8669C221.011 88.0366 221.198 87.2182 221.548 86.4654C221.899 85.7126 222.405 85.0428 223.034 84.5003C224.402 83.1816 226.233 82.4517 228.134 82.467Z" fill="#0075B9"/>
<path d="M253.634 83.1333H257.333L254.933 92.0333C254.05 94.9311 253.349 97.8814 252.833 100.867C252.812 101.143 252.895 101.416 253.067 101.633C253.125 101.709 253.201 101.77 253.288 101.811C253.375 101.852 253.471 101.871 253.567 101.867C253.926 101.834 254.271 101.708 254.567 101.5C255.742 100.586 256.856 99.5948 257.9 98.5333L258.734 99.4666C255.4 103.033 252.8 104.8 251.2 104.8C250.935 104.802 250.672 104.746 250.431 104.637C250.189 104.528 249.974 104.367 249.8 104.167C249.398 103.669 249.196 103.039 249.234 102.4C249.271 101.203 249.461 100.015 249.8 98.8666C248.18 100.681 246.277 102.223 244.167 103.433C243.024 104.192 241.702 104.64 240.333 104.733C240.07 104.746 239.807 104.699 239.564 104.595C239.321 104.491 239.106 104.333 238.934 104.133C238.536 103.596 238.347 102.933 238.4 102.267C238.417 101.55 238.495 100.836 238.634 100.133C238.867 99.0666 239.433 96.7999 240.333 93.6666C241.099 91.2613 241.668 88.7977 242.034 86.3C242.034 85.8 241.867 85.5666 241.534 85.5666C241.076 85.6223 240.639 85.7945 240.267 86.0667C239.302 86.7413 238.398 87.4998 237.567 88.3333L236.467 87.4333C238.049 85.9138 239.792 84.5725 241.667 83.4332C242.546 82.8907 243.538 82.5599 244.567 82.4666C244.755 82.4599 244.943 82.4952 245.116 82.5702C245.289 82.6452 245.443 82.7579 245.567 82.9C245.839 83.314 245.967 83.8057 245.933 84.2999C245.591 87.2392 244.978 90.1407 244.1 92.9667C243.403 95.2843 242.857 97.6448 242.467 100.033C242.469 100.373 242.587 100.702 242.8 100.967C242.897 101.076 243.015 101.164 243.147 101.227C243.278 101.29 243.421 101.326 243.567 101.333C245.146 101.015 246.576 100.183 247.633 98.9667C249.237 97.5347 250.394 95.6717 250.967 93.6001L253.634 83.1333Z" fill="#0075B9"/>
<path d="M283.1 82.467C284.272 82.4297 285.429 82.7306 286.434 83.3337C286.792 83.5435 287.092 83.8393 287.308 84.1943C287.523 84.5492 287.646 84.9523 287.667 85.3669C287.67 85.5905 287.627 85.8124 287.541 86.0188C287.455 86.2252 287.328 86.4118 287.167 86.5669C286.83 86.9022 286.376 87.0935 285.9 87.1003C285.607 87.0989 285.319 87.0183 285.067 86.867C284.65 86.5759 284.298 86.2013 284.034 85.7669C283.776 85.3232 283.419 84.9449 282.991 84.6616C282.564 84.3783 282.076 84.1976 281.567 84.1336C281.218 84.133 280.872 84.2036 280.551 84.3411C280.23 84.4787 279.941 84.6803 279.7 84.9336C279.437 85.1942 279.23 85.5063 279.092 85.8503C278.955 86.1944 278.889 86.5633 278.9 86.9337C278.9 87.6461 279.084 88.3465 279.434 88.967C280.15 90.1789 281.012 91.2984 282 92.3003C283.628 93.7762 284.64 95.8114 284.834 98.0002C284.823 98.91 284.612 99.8064 284.214 100.625C283.816 101.443 283.242 102.163 282.534 102.734C280.873 104.114 278.758 104.826 276.6 104.734C275.003 104.858 273.412 104.421 272.1 103.5C271.637 103.143 271.263 102.683 271.009 102.157C270.754 101.63 270.626 101.052 270.634 100.467C270.611 99.917 270.802 99.3794 271.167 98.967C271.351 98.7849 271.57 98.6411 271.81 98.5438C272.051 98.4466 272.308 98.3977 272.567 98.4002C273.012 98.3959 273.442 98.563 273.767 98.8669C273.935 98.9963 274.071 99.163 274.163 99.354C274.256 99.5449 274.303 99.7548 274.3 99.967C274.3 100.134 274.3 100.367 274.3 100.634C274.286 100.822 274.286 101.012 274.3 101.2C274.3 101.48 274.367 101.756 274.494 102.005C274.622 102.255 274.807 102.47 275.034 102.634C275.562 103.051 276.229 103.254 276.9 103.2C277.725 103.23 278.546 103.071 279.3 102.734C279.977 102.448 280.548 101.959 280.934 101.334C281.304 100.767 281.511 100.11 281.534 99.4337C281.529 98.7803 281.331 98.1426 280.967 97.6002C280.246 96.511 279.42 95.4951 278.5 94.567C276.944 93.061 276.005 91.0285 275.867 88.8669C275.871 88.0388 276.052 87.2211 276.397 86.4682C276.742 85.7153 277.243 85.0444 277.867 84.5002C279.275 83.1582 281.156 82.4273 283.1 82.467Z" fill="#0075B9"/>
<path d="M304.766 97.5003L305.6 98.6335C301.433 102.6 297.866 104.567 294.866 104.567C294.343 104.598 293.82 104.506 293.339 104.298C292.859 104.089 292.434 103.77 292.1 103.367C291.389 102.184 291.063 100.81 291.166 99.4337C291.242 95.5714 292.396 91.8072 294.5 88.567C295.295 86.8362 296.54 85.3508 298.106 84.266C299.672 83.1812 301.5 82.5367 303.4 82.4002C304.408 82.3413 305.4 82.676 306.166 83.3336C306.487 83.6569 306.739 84.0426 306.905 84.4668C307.071 84.8911 307.149 85.3449 307.133 85.8003C307.114 87.0081 306.704 88.1774 305.966 89.1336C304.848 90.5199 303.451 91.6556 301.866 92.4669C300.9 93.0336 298.766 94.0668 295.566 95.5002C295.41 96.3692 295.332 97.2507 295.333 98.1336C295.24 99.0173 295.439 99.9071 295.9 100.667C296.103 100.906 296.36 101.094 296.649 101.216C296.939 101.338 297.253 101.389 297.566 101.367C298.366 101.354 299.152 101.16 299.866 100.8C301.599 99.855 303.239 98.7503 304.766 97.5003ZM295.833 93.8003C298.116 92.8864 300.208 91.552 302 89.8668C302.826 89.1056 303.328 88.0552 303.4 86.9337C303.429 86.306 303.228 85.6892 302.833 85.2003C302.65 84.9822 302.42 84.8088 302.16 84.6933C301.9 84.5777 301.617 84.523 301.333 84.5336C300.66 84.5495 300.012 84.7968 299.5 85.2336C298.603 86.0138 297.906 86.9965 297.466 88.1003C296.699 89.9293 296.151 91.8426 295.833 93.8003Z" fill="#0075B9"/>
<path d="M316.633 103.9H312.833L314.6 97.2336C315.467 93.8558 316.233 90.6558 316.9 87.6336C316.995 87.1714 317.062 86.7039 317.1 86.2336C317.1 85.8336 317.1 85.6003 316.567 85.6003C316.131 85.6816 315.719 85.8642 315.367 86.1335C314.369 86.9399 313.422 87.8083 312.533 88.7336L311.733 87.8336C313.139 86.2752 314.782 84.9479 316.6 83.9002C317.744 83.1872 319.029 82.7321 320.367 82.5668C320.62 82.5617 320.867 82.6441 321.067 82.8002C321.154 82.8581 321.224 82.938 321.271 83.0315C321.318 83.1251 321.339 83.2292 321.333 83.3336C321.276 83.9313 321.164 84.5225 321 85.1002L319.9 89.7002C321.519 87.1238 323.482 84.7802 325.733 82.7337C326.421 81.998 327.337 81.5163 328.333 81.3669C328.567 81.3604 328.8 81.4014 329.018 81.4873C329.236 81.5733 329.434 81.7024 329.6 81.867C329.767 82.0048 329.901 82.1778 329.994 82.3738C330.086 82.5697 330.134 82.7836 330.133 83.0002C330.137 83.2238 330.094 83.4458 330.008 83.6522C329.922 83.8587 329.794 84.0452 329.633 84.2003C328.871 84.7182 328.025 85.1014 327.133 85.3336C326.037 85.6807 325.002 86.1982 324.067 86.867C323.08 87.6554 322.205 88.575 321.467 89.6003C320.671 90.6225 320.01 91.7428 319.5 92.9337C318.794 95.0074 318.215 97.1223 317.767 99.2669L316.633 103.9Z" fill="#0075B9"/>
<path d="M342.101 84.8998C340.971 86.623 340.064 88.4823 339.401 90.4333C338.903 91.9736 338.644 93.5812 338.634 95.1999C338.753 97.5128 339.076 99.8107 339.601 102.067C342.714 99.8745 345.421 97.1558 347.601 94.0331C348.954 92.1434 349.761 89.9177 349.934 87.5998C349.885 86.8968 349.68 86.2136 349.334 85.5999C349.006 85.0234 348.791 84.3899 348.7 83.7332C348.698 83.2983 348.865 82.8795 349.167 82.5664C349.303 82.408 349.472 82.2813 349.662 82.1949C349.852 82.1086 350.059 82.0648 350.267 82.0666C350.538 82.0629 350.806 82.1283 351.045 82.2566C351.284 82.3849 351.487 82.5717 351.634 82.7998C352.029 83.5467 352.202 84.3911 352.134 85.2333C352.048 89.0961 350.689 92.8225 348.267 95.8332C345.153 100.025 341.039 103.371 336.301 105.567C336.301 104.767 335.967 103.5 335.6 101.733C335.051 99.322 334.705 96.8691 334.567 94.3999C334.563 92.5577 334.997 90.7409 335.834 89.0998C336.722 87.3457 338.013 85.8265 339.601 84.6664C337.41 84.5601 335.222 84.9005 333.167 85.6666C332.267 86.0999 331.801 86.5998 331.801 87.1998C331.858 87.6167 331.982 88.0218 332.167 88.3998C332.294 88.7198 332.372 89.0569 332.401 89.3999C332.397 89.5416 332.362 89.6805 332.299 89.8072C332.236 89.934 332.145 90.0453 332.034 90.1332C331.803 90.3329 331.506 90.4399 331.2 90.4333C330.983 90.4411 330.766 90.3968 330.569 90.3041C330.372 90.2113 330.2 90.0726 330.067 89.8998C329.75 89.4651 329.586 88.9376 329.601 88.3998C329.591 87.3975 329.947 86.4263 330.6 85.6666C331.501 84.7203 332.661 84.0596 333.934 83.7666C336.114 83.236 338.359 83.0227 340.6 83.1332C341.252 82.7951 341.948 82.5482 342.667 82.3998C342.945 82.4157 343.207 82.5333 343.404 82.73C343.601 82.9267 343.718 83.1888 343.734 83.4665C343.667 83.9998 343.134 84.4665 342.101 84.8998Z" fill="#0075B9"/>
<path d="M356.933 88.3996L355.8 87.5331C357.114 85.9548 358.68 84.6034 360.433 83.5331C361.512 82.8351 362.751 82.4223 364.033 82.3331C364.474 82.311 364.909 82.4403 365.267 82.6998C365.41 82.8153 365.524 82.9631 365.599 83.1311C365.675 83.2991 365.709 83.4825 365.7 83.6663C365.303 85.7909 364.757 87.885 364.067 89.933C362.838 93.4882 361.934 97.1478 361.367 100.866C361.298 101.061 361.298 101.272 361.367 101.466C361.367 101.466 361.6 101.7 361.767 101.7C361.933 101.7 363.7 100.633 365.933 98.3665L366.933 99.3331C365.382 100.904 363.673 102.312 361.833 103.533C361.049 104.063 360.143 104.384 359.2 104.466C358.935 104.475 358.671 104.43 358.424 104.332C358.178 104.235 357.954 104.087 357.767 103.9C357.504 103.54 357.353 103.111 357.333 102.666C358.061 97.3574 359.346 92.1398 361.167 87.0998C361.266 86.7524 361.322 86.3941 361.333 86.0331C361.333 85.6998 361.167 85.533 360.867 85.533C360.449 85.5593 360.046 85.6974 359.7 85.933C358.726 86.6949 357.801 87.5188 356.933 88.3996ZM366.933 71.4998C367.176 71.4887 367.418 71.5306 367.642 71.6227C367.867 71.7148 368.068 71.8549 368.233 72.033C368.406 72.2091 368.542 72.4176 368.633 72.6464C368.725 72.8753 368.77 73.12 368.767 73.3665C368.768 74.1016 368.481 74.8079 367.967 75.333C367.758 75.5949 367.495 75.8081 367.196 75.9578C366.896 76.1075 366.568 76.1901 366.233 76.1997C365.997 76.1999 365.763 76.153 365.546 76.0614C365.328 75.9698 365.131 75.8355 364.966 75.6665C364.787 75.4814 364.648 75.2618 364.556 75.0211C364.464 74.7805 364.423 74.5236 364.433 74.2663C364.427 73.5428 364.688 72.8424 365.166 72.2998C365.388 72.0492 365.66 71.8483 365.964 71.7104C366.269 71.5725 366.599 71.5008 366.933 71.4998Z" fill="#0075B9"/>
<path d="M385.4 98.3667L385.934 99.8666C383.108 102.51 379.51 104.181 375.667 104.633C375.016 104.725 374.352 104.623 373.758 104.338C373.165 104.053 372.669 103.599 372.334 103.033C371.61 101.828 371.251 100.438 371.3 99.0332C371.361 96.1455 372.104 93.3131 373.467 90.7666C374.639 88.1584 376.423 85.8714 378.667 84.1C380.228 82.9413 382.123 82.3214 384.067 82.3334C385.072 82.2688 386.072 82.5129 386.934 83.0333C387.221 83.2243 387.459 83.4813 387.627 83.7828C387.795 84.0843 387.889 84.4217 387.9 84.7667C387.909 85.006 387.87 85.2445 387.784 85.468C387.698 85.6915 387.568 85.8952 387.401 86.0667C387.005 86.4122 386.492 86.5912 385.967 86.5666C385.141 86.4952 384.348 86.2078 383.667 85.7333C382.943 85.2417 382.105 84.9433 381.234 84.8666C380.291 84.9202 379.407 85.3388 378.767 86.0334C377.639 87.278 376.827 88.7757 376.4 90.4C375.639 92.5398 375.256 94.7956 375.267 97.0667C375.205 98.3758 375.529 99.6744 376.2 100.8C376.416 101.12 376.71 101.38 377.054 101.555C377.398 101.73 377.781 101.815 378.167 101.8C380.902 101.523 383.457 100.31 385.4 98.3667Z" fill="#0075B9"/>
<path d="M392.733 88.3996L391.633 87.5331C392.948 85.9548 394.513 84.6034 396.266 83.5331C397.336 82.8404 398.562 82.4278 399.833 82.3331C400.285 82.3059 400.732 82.4354 401.1 82.6998C401.237 82.82 401.347 82.9687 401.422 83.1355C401.497 83.3024 401.535 83.4835 401.533 83.6663C401.115 85.7895 400.558 87.8829 399.866 89.933C398.637 93.4882 397.733 97.1478 397.166 100.866C397.161 101.084 397.232 101.296 397.366 101.466C397.406 101.53 397.459 101.585 397.523 101.625C397.586 101.665 397.658 101.691 397.733 101.7C398.266 101.7 399.666 100.633 401.933 98.3665L402.933 99.3331C401.379 100.915 399.658 102.323 397.8 103.533C397.027 104.062 396.132 104.383 395.2 104.466C394.935 104.475 394.671 104.43 394.424 104.332C394.177 104.235 393.953 104.087 393.766 103.9C393.409 103.458 393.231 102.9 393.266 102.333C393.994 97.0272 395.267 91.8105 397.066 86.7663C397.186 86.5226 397.276 86.2652 397.333 85.9997C397.333 85.6664 397.166 85.4996 396.866 85.4996C396.448 85.5259 396.046 85.6641 395.7 85.8996C394.661 86.6717 393.67 87.5066 392.733 88.3996ZM402.733 71.4998C402.975 71.4887 403.217 71.5306 403.442 71.6227C403.666 71.7148 403.868 71.8549 404.033 72.033C404.201 72.2107 404.332 72.4201 404.418 72.6491C404.504 72.8781 404.543 73.1221 404.533 73.3665C404.53 74.0944 404.257 74.7953 403.766 75.333C403.551 75.5957 403.282 75.8091 402.977 75.9586C402.672 76.1082 402.339 76.1904 402 76.1997C401.764 76.1999 401.53 76.153 401.312 76.0614C401.095 75.9698 400.898 75.8355 400.733 75.6665C400.393 75.2814 400.213 74.7799 400.233 74.2663C400.21 73.5399 400.473 72.8336 400.966 72.2998C401.188 72.0414 401.465 71.8357 401.776 71.6974C402.088 71.559 402.426 71.4915 402.766 71.4998H402.733Z" fill="#0075B9"/>
<path d="M419.867 82.4672C420.668 82.4568 421.462 82.632 422.184 82.9789C422.907 83.3259 423.54 83.8351 424.033 84.4672C425.229 86.0551 425.819 88.0167 425.7 90.0006C425.657 93.7154 424.231 97.2809 421.7 100.001C420.712 101.317 419.449 102.402 417.998 103.179C416.547 103.957 414.943 104.408 413.3 104.501C412.48 104.537 411.662 104.395 410.902 104.084C410.142 103.773 409.459 103.301 408.9 102.701C408.314 102.04 407.864 101.27 407.578 100.434C407.292 99.5989 407.175 98.715 407.233 97.8339C407.196 94.2685 408.255 90.7777 410.267 87.8339C411.282 86.2001 412.695 84.8508 414.374 83.9121C416.053 82.9735 417.943 82.4764 419.867 82.4672ZM417.7 84.3673C416.256 84.3673 414.856 85.4006 413.5 87.4672C412.021 90.0711 411.315 93.0431 411.467 96.0339C411.375 97.864 411.815 99.6815 412.733 101.267C412.98 101.694 413.335 102.048 413.762 102.294C414.189 102.54 414.674 102.669 415.167 102.667C415.99 102.591 416.78 102.306 417.462 101.839C418.144 101.372 418.697 100.74 419.067 100.001C420.646 97.4415 421.435 94.4729 421.333 91.4673C421.462 89.5867 421.106 87.7046 420.3 86.0006C420.046 85.526 419.672 85.1259 419.217 84.8395C418.761 84.5531 418.238 84.3903 417.7 84.3673Z" fill="#0075B9"/>
</svg>
