<svg xmlns="http://www.w3.org/2000/svg" width="160" height="120" viewBox="0 0 160 120" fill="none">
  <rect width="160" height="120" fill="#F3F4F6"/>
  <path d="M80 45C74.4772 45 70 49.4772 70 55C70 60.5228 74.4772 65 80 65C85.5228 65 90 60.5228 90 55C90 49.4772 85.5228 45 80 45ZM66 55C66 47.268 72.268 41 80 41C87.732 41 94 47.268 94 55C94 62.732 87.732 69 80 69C72.268 69 66 62.732 66 55Z" fill="#9CA3AF"/>
  <path d="M52 40C50.3431 40 49 41.3431 49 43V77C49 78.6569 50.3431 80 52 80H108C109.657 80 111 78.6569 111 77V43C111 41.3431 109.657 40 108 40H52ZM45 43C45 39.134 48.134 36 52 36H108C111.866 36 115 39.134 115 43V77C115 80.866 111.866 84 108 84H52C48.134 84 45 80.866 45 77V43Z" fill="#9CA3AF"/>
</svg>
